<?xml version="1.0" encoding="utf-8"?>
<!-- Generator: Adobe Illustrator 21.1.0, SVG Export Plug-In . SVG Version: 6.00 Build 0)  -->
<svg version="1.1" id="Layer_1" xmlns="http://www.w3.org/2000/svg" xmlns:xlink="http://www.w3.org/1999/xlink" x="0px" y="0px"
	 viewBox="0 0 960 150" style="enable-background:new 0 0 960 150;" xml:space="preserve">
<style type="text/css">
	.st0{fill:none;}
	.st1{fill:#00427E;}
	.st2{opacity:0.4;fill:#9DDCF9;}
	.st3{opacity:0.75;}
	.st4{fill:url(#Jive);}
</style>
<pattern  x="-240" y="-375" width="108.3" height="109.6" patternUnits="userSpaceOnUse" id="Jive" viewBox="47.6 -219.3 108.3 109.6" style="overflow:visible;">
	<g>
		<rect x="47.6" y="-219.3" class="st0" width="108.3" height="109.6"/>
		<g>
			<path class="st1" d="M135-74.9c0-0.1,0.1-0.2,0.2-0.2c12.9-0.1,24.8-3.3,34-11.5c-8,5.6-22.9,7.5-31.5,3.6
				c-0.1,0-0.2-0.2-0.1-0.3c0-0.1,0.1-0.2,0.3-0.2c10.7,0.3,19.3-3,26-9c-6.9-0.4-12.6-4.7-12.6-9.8c0-0.1,0.1-0.2,0.2-0.2
				c0.1,0,0.2,0,0.3,0.1c1.1,2.5,4.7,3.8,8.6,2.9c4.2-1,7-4.2,6.3-7.2c-0.5-2-2.4-3.4-5-3.8c-0.1,0-0.2-0.1-0.2-0.3
				c0-0.1,0.1-0.2,0.2-0.2c1.1-0.1,2.2-0.1,3.3,0c6.5,0.6,11.5,4.6,11.9,9.2c4.7-0.5,8.9-3.2,10.4-6.8c0-0.1,0.2-0.2,0.3-0.2
				c0.1,0,0.2,0.1,0.2,0.2c0.4,4.8-1.3,7.8-5,10.9c5.4-2.1,11.4-2.2,17.3,0.5c0.1,0,0.2,0.2,0.1,0.3c0,0.1-0.1,0.2-0.2,0.2
				c-4.9,0.2-8.4,1.8-11.7,5.1c18.3-5.1,33.1,6.2,28,23.1c0,0.1-0.1,0.2-0.3,0.2c-0.1,0-0.2-0.1-0.2-0.2
				c-0.9-9.7-7.7-16.1-17.9-17.1c5.4,2.1,11,7,11.6,15.5c0,0.1-0.1,0.2-0.2,0.3c-0.1,0-0.2,0-0.3-0.1c-2.8-6.2-8.3-9.3-14.2-9.8
				c6.3,2.6,10.4,8.6,11.6,16.4c0,0.1-0.1,0.2-0.2,0.3c-0.1,0-0.2,0-0.3-0.1c-3.9-7.6-12.2-12.8-22.4-8.8
				c-10.6,4.1-15.3,16.4-16.3,25c0,0.1-0.1,0.2-0.2,0.2c-0.1,0-0.2-0.1-0.3-0.2c-3.7-15.7,3.6-31.9,16.6-38.8
				c-7.1,2-13.4,6.3-17,13.4c-8.3,1-14,3.9-16.9,9.2c-0.1,0.1-0.2,0.2-0.3,0.1c-0.1,0-0.2-0.1-0.2-0.3c0.2-2.1,0.9-6.3,4.1-8.3
				c-7,0-12.5-0.9-17.8-3C135.1-74.7,135-74.8,135-74.9z M164.5-21.5c-0.1-0.1-0.2-0.1-0.3,0c-0.1,0.1-0.1,0.2,0,0.3
				c1.6,2.8,0.1,6.8-3.1,6.8c-5.7,0-8.5-10.8-7.6-20.6c2.2,5.8,4,8.1,7.3,10.8c0.1,0.1,0.2,0.1,0.3,0c0.1-0.1,0.1-0.2,0.1-0.3
				c-4.9-9.1-5.9-16.1-5.9-24.1c1.5,6,3.2,9.3,8.1,14.4c0.1,0.1,0.2,0.1,0.3,0c0.1-0.1,0.1-0.2,0.1-0.3c-5.3-11.6-4.9-24.4-0.9-34.3
				c0-0.1,0-0.2-0.1-0.3c-0.1-0.1-0.2-0.1-0.3,0c-5.2,2.6-8.3,4.2-12.8,10.4c1.4,7.4,0.2,11-3.2,17.2c3.9-9.9,1.8-23.9-8.2-29.6
				c-0.1-0.1-0.2,0-0.3,0.1c-0.1,0.1-0.1,0.2,0,0.3c3.8,4,6.5,10.6,4.2,17.9c1.5-10.4-7.6-19.1-17.8-19.1c-9.6,0-16.2,7.5-15.6,14.9
				c0.5,7.4,5.4,11,9.7,12.5c0.1,0,0.2,0,0.3-0.1c0.1-0.1,0-0.2,0-0.3c-5.6-5.7-6.4-16.5,3.6-19.8c-5.9,5.1-3.7,16.8,5.7,17.7
				c0.1,0,0.2-0.1,0.3-0.2c0-0.1,0-0.2-0.1-0.3c-2-1.3-3.7-3.8-3.7-6.6c0-4.7,3.4-6.5,5.7-6.5c3.4,0,6.3,3.3,6.3,8.2
				c0,5.8-5.3,10.7-12,11.4c-6.6,0.7-12.8-2.2-15.8-6.5c-0.1-0.1-0.2-0.1-0.3-0.1c-0.1,0.1-0.2,0.2-0.1,0.3
				c3,11.7,16.8,16.9,26.9,9.5c-6.6,7.5-17,7.6-25.7-0.1c-0.1-0.1-0.2-0.1-0.3,0c-0.1,0.1-0.1,0.2-0.1,0.3
				c2.7,5.4,9.3,11.8,18.6,10.9c8.6-0.9,13.5-9,14.5-15.7c0.6,8.5-1.4,14.5-8.8,20.1c-0.1,0.1-0.1,0.2-0.1,0.3
				c0.1,0.1,0.2,0.2,0.3,0.1c6.8-2,12.2-5.4,15-12.5c0,6.2-2.1,12.4-7.5,16.5c-0.1,0.1-0.1,0.2-0.1,0.3s0.2,0.2,0.3,0.1
				c3.5-1,6.2-2.5,8.1-5.2c1.3,11.1,6.5,17.7,12.5,17.7c4.1,0,7.2-3,7.2-7.9C169.3-15.3,167.8-19.3,164.5-21.5z M263.7-113.1
				c-3.2-3.9-9.5-5.4-16.4-4c0.5-4.3-0.3-8.8-1.6-11.5c-0.1-0.1-0.2-0.2-0.3-0.1c-0.1,0-0.2,0.1-0.2,0.3c0.4,8.8-4.6,15.8-13.4,18.9
				c6.9-4.8,8.9-14.2,5.6-19.1c-0.1-0.1-0.2-0.1-0.3-0.1c-0.1,0-0.2,0.2-0.2,0.3c0.4,2.1-0.6,4.7-2.7,6.7c-2.9,2.8-6.8,3.5-8.8,1.4
				c-2-2-1.2-5.9,1.7-8.8c1.1-1,2.3-1.8,3.4-2.2c0.1,0,0.2-0.2,0.2-0.3c0-0.1-0.1-0.2-0.2-0.2c-6.4-0.6-10.8,3.3-13.5,7.9
				c-2.8,4.7-7.6,8.4-13.2,7.7c-0.1,0-0.2,0.1-0.3,0.2c0,0.1,0,0.2,0.1,0.3c2.8,1.7,5.9,2.4,9.9,1.1c-5.8,4.9-14,7.7-21.8,5.2
				c-0.1,0-0.2,0-0.3,0.1c-0.1,0.1-0.1,0.2,0,0.3c5.9,6.6,17.7,6.7,25.1,1.4c-3,4.3-7.1,7.5-14.3,8.5c-0.1,0-0.2,0.1-0.2,0.2
				c0,0.1,0.1,0.2,0.2,0.3c8.3,3.1,16.6,0,23.4-8.2c-3,6.4-7.9,11.5-14.8,14c-0.1,0-0.2,0.2-0.2,0.3c0,0.1,0.1,0.2,0.2,0.2
				c3.9,0.1,7.5-0.9,12.3-3.6c-3.5,5.7-2.7,15.6,2.4,22.3c0.1,0.1,0.2,0.1,0.3,0.1c0.1,0,0.2-0.2,0.1-0.3
				c-1.2-7.2,1.3-15.3,5.6-19.6c-2.2,7.6,0,14.6,5.9,19.6c0.1,0.1,0.2,0.1,0.3,0c0.1,0,0.1-0.1,0.2-0.2c1.2-9.4,11.8-19,20.6-19.8
				c0.1,0,0.2-0.1,0.2-0.2c0-0.1-0.1-0.2-0.2-0.3c-4.3-1-8.7-0.5-12.4,1c2.7-2.9,5.9-5.1,9.6-6.2c0.1,0,0.2-0.2,0.2-0.3
				c0-0.1-0.1-0.2-0.2-0.2c-4.5-0.3-8.9,1-12.7,3.5c4.4-6.6,11-11.5,19.4-13.5c0.1,0,0.2-0.1,0.2-0.3c0-0.1-0.1-0.2-0.2-0.2
				c-11.9-1.3-21.7,3.3-28.2,11.9c1.6-4.9,6.4-9.8,12.9-12.6c5.8-2.5,11.9-2.9,16.4-1.5c0.1,0,0.2,0,0.3-0.1
				C263.8-112.9,263.8-113,263.7-113.1z M210.8-37.5c4.8-10.5,4.5-18.7,0.6-29.1c0-0.1-0.2-0.2-0.3-0.2c-0.1,0-0.2,0.1-0.2,0.3
				c0.6,12.6-2.8,21.7-10.3,27.8c8.3-9.9,4.4-29.6-8.8-29.6c-9.6,0-17.5,8-19.5,17.5c0,0.1,0,0.2,0.2,0.3c0.1,0,0.2,0,0.3-0.1
				c2.8-4.8,7.4-7.9,12.5-7.9c8.1,0,10.5,6.5,10.5,11c0,6.2-4.9,11.3-8.7,11.3c-3.4,0-5-2.8-5-4.9c0-3.9,3-7.2,6.4-8.2
				c0.1,0,0.2-0.2,0.2-0.3c0-0.1-0.1-0.2-0.3-0.2c-4.1,0-7.6,1.9-9.6,5.6c-0.3-2.9-0.3-4.7,0.6-7.7c0-0.1,0-0.2-0.1-0.3
				c-0.1-0.1-0.2,0-0.3,0.1c-7.4,9.4-3.8,25.6,2,32.4c-5.5-4-10.4-12.6-10.3-24.4c0-0.1-0.1-0.2-0.2-0.3c-0.1,0-0.2,0-0.3,0.2
				c-4.1,10.3-1.9,29.2,9.3,39.9c-2.9,0.4-5.9,0.3-9.1-0.7c-0.1,0-0.2,0-0.3,0.1c-0.1,0.1,0,0.2,0.1,0.3c4.1,3.5,9.8,4.5,15.3,4.5
				c-4.7-5.5-3.1-16.6,4.4-16.6c5.3,0,7.8,8.3,3.6,12.8c-0.1,0.1-0.1,0.2,0,0.3c0.1,0.1,0.2,0.1,0.3,0.1c4.8-1.7,9.9-5.8,9.9-11
				c0-5-4.8-9.4-11.8-9.1c8.8-2.5,18.1,0.3,22.9,6.3c0.1,0.1,0.2,0.1,0.3,0.1c0.1-0.1,0.2-0.2,0.1-0.3c-2.8-10.7-12-15.2-23.4-13.7
				c9.3-3.8,23.3-0.5,29.4,7.3c0.1,0.1,0.2,0.1,0.3,0.1c0.1-0.1,0.2-0.2,0.1-0.3C220.1-30.6,216.6-35.6,210.8-37.5z"/>
			<path class="st2" d="M237.2-56.8c0,0.1-0.1,0.2-0.2,0.2c-12.9,0.1-24.8,3.3-34,11.5c8-5.6,22.9-7.5,31.5-3.6
				c0.1,0.1,0.2,0.2,0.1,0.3c0,0.1-0.1,0.2-0.3,0.2c-10.7-0.3-19.3,3-26,9c6.9,0.4,12.6,4.7,12.6,9.8c0,0.1-0.1,0.2-0.2,0.2
				c-0.1,0-0.2,0-0.3-0.1c-1.1-2.5-4.7-3.8-8.6-2.9c-4.2,1-7,4.2-6.3,7.2c0.5,2,2.4,3.4,5,3.8c0.1,0,0.2,0.1,0.2,0.3
				c0,0.1-0.1,0.2-0.2,0.2c-1.1,0.1-2.2,0.1-3.3,0c-6.5-0.6-11.5-4.6-11.9-9.2c-4.7,0.5-8.9,3.2-10.4,6.8c0,0.1-0.2,0.2-0.3,0.2
				c-0.1,0-0.2-0.1-0.2-0.2c-0.4-4.8,1.3-7.8,5-10.9c-5.4,2.1-11.4,2.2-17.3-0.5c-0.1-0.1-0.2-0.2-0.1-0.3c0-0.1,0.1-0.2,0.2-0.2
				c4.9-0.2,8.4-1.8,11.7-5.1c-18.3,5.1-33.1-6.2-28-23.1c0-0.1,0.1-0.2,0.3-0.2s0.2,0.1,0.2,0.2c0.9,9.7,7.7,16.1,17.9,17.1
				c-5.4-2.1-11-7-11.6-15.5c0-0.1,0.1-0.2,0.2-0.3c0.1,0,0.2,0,0.3,0.1c2.8,6.2,8.3,9.3,14.2,9.8c-6.3-2.6-10.4-8.6-11.6-16.4
				c0-0.1,0.1-0.2,0.2-0.3c0.1,0,0.2,0,0.3,0.1c3.9,7.6,12.2,12.8,22.4,8.8c10.6-4.1,15.3-16.4,16.3-25c0-0.1,0.1-0.2,0.2-0.2
				c0.1,0,0.2,0.1,0.3,0.2c3.7,15.7-3.6,31.9-16.6,38.8c7.1-2,13.4-6.3,17-13.4c8.3-1,14-3.9,16.9-9.2c0.1-0.1,0.2-0.2,0.3-0.1
				c0.1,0,0.2,0.1,0.2,0.3c-0.2,2.1-0.9,6.3-4.1,8.3c7,0,12.5,0.9,17.8,3C237.2-57,237.2-56.9,237.2-56.8z M207.7-110.3
				c0.1,0.1,0.2,0.1,0.3,0c0.1-0.1,0.1-0.2,0-0.3c-1.6-2.8-0.1-6.8,3.1-6.8c5.7,0,8.5,10.8,7.6,20.6c-2.2-5.8-4-8.1-7.3-10.8
				c-0.1-0.1-0.2-0.1-0.3,0c-0.1,0.1-0.1,0.2-0.1,0.3c4.9,9.1,5.9,16.1,5.9,24.1c-1.5-6-3.2-9.3-8.1-14.4c-0.1-0.1-0.2-0.1-0.3,0
				c-0.1,0.1-0.1,0.2-0.1,0.3c5.3,11.6,4.9,24.4,0.9,34.3c0,0.1,0,0.2,0.1,0.3c0.1,0.1,0.2,0.1,0.3,0c5.2-2.6,8.3-4.2,12.8-10.4
				c-1.4-7.4-0.2-11,3.2-17.2c-3.9,9.9-1.8,23.9,8.2,29.6c0.1,0.1,0.2,0,0.3-0.1c0.1-0.1,0.1-0.2,0-0.3c-3.8-4-6.5-10.6-4.2-17.9
				c-1.5,10.4,7.6,19.1,17.8,19.1c9.6,0,16.2-7.5,15.6-14.9c-0.5-7.4-5.4-11-9.7-12.5c-0.1,0-0.2,0-0.3,0.1c-0.1,0.1-0.1,0.2,0,0.3
				c5.6,5.7,6.4,16.5-3.6,19.8c5.9-5.1,3.7-16.8-5.7-17.7c-0.1,0-0.2,0.1-0.3,0.2c0,0.1,0,0.2,0.1,0.3c2,1.3,3.7,3.8,3.7,6.6
				c0,4.7-3.4,6.5-5.7,6.5c-3.4,0-6.3-3.3-6.3-8.2c0-5.8,5.3-10.7,12-11.4c6.6-0.7,12.8,2.2,15.8,6.5c0.1,0.1,0.2,0.1,0.3,0.1
				c0.1-0.1,0.2-0.2,0.1-0.3c-3-11.7-16.8-16.9-26.9-9.5c6.6-7.5,17-7.6,25.7,0.1c0.1,0.1,0.2,0.1,0.3,0c0.1-0.1,0.1-0.2,0.1-0.3
				c-2.7-5.4-9.3-11.8-18.6-10.9c-8.6,0.9-13.5,9-14.5,15.7c-0.6-8.5,1.4-14.5,8.8-20.1c0.1-0.1,0.1-0.2,0.1-0.3
				c-0.1-0.1-0.2-0.2-0.3-0.1c-6.8,2-12.2,5.4-15,12.5c0-6.2,2.1-12.4,7.5-16.5c0.1-0.1,0.1-0.2,0.1-0.3c-0.1-0.1-0.2-0.2-0.3-0.1
				c-3.5,1-6.2,2.5-8.1,5.2c-1.3-11.1-6.5-17.7-12.5-17.7c-4.1,0-7.2,3-7.2,7.9C202.9-116.5,204.4-112.5,207.7-110.3z M108.5-18.7
				c3.2,3.9,9.5,5.4,16.4,4c-0.5,4.3,0.3,8.8,1.6,11.5c0.1,0.1,0.2,0.2,0.3,0.1s0.2-0.1,0.2-0.3c-0.4-8.8,4.6-15.8,13.4-18.9
				c-6.9,4.8-8.9,14.2-5.6,19.1c0.1,0.1,0.2,0.1,0.3,0.1c0.1,0,0.2-0.2,0.2-0.3c-0.4-2.1,0.6-4.7,2.7-6.7c2.9-2.8,6.8-3.5,8.8-1.4
				c2,2,1.2,5.9-1.7,8.8c-1.1,1-2.3,1.8-3.4,2.2c-0.1,0-0.2,0.2-0.2,0.3c0,0.1,0.1,0.2,0.2,0.2c6.4,0.6,10.8-3.3,13.5-7.9
				c2.8-4.7,7.6-8.4,13.2-7.7c0.1,0,0.2-0.1,0.3-0.2c0-0.1,0-0.2-0.1-0.3c-2.8-1.7-5.9-2.4-9.9-1.1c5.8-4.9,14-7.7,21.8-5.2
				c0.1,0,0.2,0,0.3-0.1c0.1-0.1,0.1-0.2,0-0.3c-5.9-6.6-17.7-6.7-25.1-1.4c3-4.3,7.1-7.5,14.3-8.5c0.1,0,0.2-0.1,0.2-0.2
				c0-0.1-0.1-0.2-0.2-0.3c-8.3-3.1-16.6,0-23.4,8.2c3-6.4,7.9-11.5,14.8-14c0.1,0,0.2-0.2,0.2-0.3c0-0.1-0.1-0.2-0.2-0.2
				c-3.9-0.1-7.5,0.9-12.3,3.6c3.5-5.7,2.7-15.6-2.4-22.3c-0.1-0.1-0.2-0.1-0.3-0.1c-0.1,0-0.2,0.2-0.1,0.3
				c1.2,7.2-1.3,15.3-5.6,19.6c2.2-7.6,0-14.6-5.9-19.6c-0.1-0.1-0.2-0.1-0.3,0c-0.1,0-0.1,0.1-0.2,0.2c-1.2,9.4-11.8,19-20.6,19.8
				c-0.1,0-0.2,0.1-0.2,0.2c0,0.1,0.1,0.2,0.2,0.3c4.3,1,8.7,0.5,12.4-1c-2.7,2.9-5.9,5.1-9.6,6.2c-0.1,0-0.2,0.2-0.2,0.3
				c0,0.1,0.1,0.2,0.2,0.2c4.5,0.3,8.9-1,12.7-3.5c-4.4,6.6-11,11.5-19.4,13.5c-0.1,0-0.2,0.1-0.2,0.3c0,0.1,0.1,0.2,0.2,0.2
				c11.9,1.3,21.7-3.3,28.2-11.9c-1.6,4.9-6.4,9.8-12.9,12.6c-5.8,2.5-11.8,2.9-16.4,1.5c-0.1,0-0.2,0-0.3,0.1
				C108.4-18.9,108.4-18.7,108.5-18.7z M161.4-94.2c-4.8,10.5-4.5,18.7-0.6,29.1c0,0.1,0.2,0.2,0.3,0.2c0.1,0,0.2-0.1,0.2-0.3
				c-0.6-12.6,2.8-21.7,10.3-27.8c-8.3,9.9-4.4,29.6,8.8,29.6c9.6,0,17.5-8,19.5-17.5c0-0.1,0-0.2-0.2-0.3c-0.1,0-0.2,0-0.3,0.1
				c-2.8,4.8-7.4,7.9-12.5,7.9c-8.1,0-10.5-6.5-10.5-11c0-6.2,4.9-11.3,8.7-11.3c3.4,0,5,2.8,5,4.9c0,3.9-3,7.2-6.4,8.2
				c-0.1,0-0.2,0.2-0.2,0.3c0,0.1,0.1,0.2,0.3,0.2c4.1,0,7.6-1.9,9.6-5.6c0.3,2.9,0.3,4.7-0.6,7.7c0,0.1,0,0.2,0.1,0.3
				c0.1,0.1,0.2,0,0.3-0.1c7.4-9.4,3.8-25.6-2-32.4c5.5,4,10.4,12.6,10.3,24.4c0,0.1,0.1,0.2,0.2,0.3c0.1,0,0.2,0,0.3-0.2
				c4.1-10.3,1.9-29.2-9.3-39.9c2.9-0.4,5.9-0.3,9.1,0.7c0.1,0,0.2,0,0.3-0.1c0.1-0.1,0-0.2-0.1-0.3c-4.1-3.5-9.8-4.5-15.3-4.5
				c4.7,5.5,3.1,16.6-4.4,16.6c-5.3,0-7.8-8.3-3.6-12.8c0.1-0.1,0.1-0.2,0-0.3c-0.1-0.1-0.2-0.1-0.3-0.1c-4.8,1.7-9.9,5.8-9.9,11
				c0,5,4.8,9.4,11.8,9.1c-8.8,2.5-18.1-0.3-22.9-6.3c-0.1-0.1-0.2-0.1-0.3-0.1c-0.1,0.1-0.2,0.2-0.1,0.3
				c2.8,10.7,12,15.2,23.4,13.7c-9.3,3.8-23.3,0.5-29.4-7.3c-0.1-0.1-0.2-0.1-0.3-0.1c-0.1,0-0.2,0.2-0.1,0.3
				C152.2-101.1,155.7-96.2,161.4-94.2z"/>
		</g>
		<g>
			<path class="st1" d="M26.7-74.9c0-0.1,0.1-0.2,0.2-0.2c12.9-0.1,24.8-3.3,34-11.5c-8,5.6-22.9,7.5-31.5,3.6
				c-0.1,0-0.2-0.2-0.1-0.3c0-0.1,0.1-0.2,0.3-0.2c10.7,0.3,19.3-3,26-9c-6.9-0.4-12.6-4.7-12.6-9.8c0-0.1,0.1-0.2,0.2-0.2
				c0.1,0,0.2,0,0.3,0.1c1.1,2.5,4.7,3.8,8.6,2.9c4.2-1,7-4.2,6.3-7.2c-0.5-2-2.4-3.4-5-3.8c-0.1,0-0.2-0.1-0.2-0.3
				c0-0.1,0.1-0.2,0.2-0.2c1.1-0.1,2.2-0.1,3.3,0c6.5,0.6,11.5,4.6,11.9,9.2c4.7-0.5,8.9-3.2,10.4-6.8c0-0.1,0.2-0.2,0.3-0.2
				c0.1,0,0.2,0.1,0.2,0.2c0.4,4.8-1.3,7.8-5,10.9c5.4-2.1,11.4-2.2,17.3,0.5c0.1,0,0.2,0.2,0.1,0.3c0,0.1-0.1,0.2-0.2,0.2
				c-4.9,0.2-8.4,1.8-11.7,5.1c18.3-5.1,33.1,6.2,28,23.1c0,0.1-0.1,0.2-0.3,0.2c-0.1,0-0.2-0.1-0.2-0.2
				c-0.9-9.7-7.7-16.1-17.9-17.1c5.4,2.1,11,7,11.6,15.5c0,0.1-0.1,0.2-0.2,0.3c-0.1,0-0.2,0-0.3-0.1c-2.8-6.2-8.3-9.3-14.2-9.8
				c6.3,2.6,10.4,8.6,11.6,16.4c0,0.1-0.1,0.2-0.2,0.3c-0.1,0-0.2,0-0.3-0.1c-3.9-7.6-12.2-12.8-22.4-8.8C64.5-68,59.8-55.7,58.8-47
				c0,0.1-0.1,0.2-0.2,0.2c-0.1,0-0.2-0.1-0.3-0.2c-3.7-15.7,3.6-31.9,16.6-38.8c-7.1,2-13.4,6.3-17,13.4c-8.3,1-14,3.9-16.9,9.2
				c-0.1,0.1-0.2,0.2-0.3,0.1c-0.1,0-0.2-0.1-0.2-0.3c0.2-2.1,0.9-6.3,4.1-8.3c-7,0-12.5-0.9-17.8-3C26.7-74.7,26.7-74.8,26.7-74.9z
				 M56.2-21.5c-0.1-0.1-0.2-0.1-0.3,0c-0.1,0.1-0.1,0.2,0,0.3c1.6,2.8,0.1,6.8-3.1,6.8c-5.7,0-8.5-10.8-7.6-20.6
				c2.2,5.8,4,8.1,7.3,10.8c0.1,0.1,0.2,0.1,0.3,0c0.1-0.1,0.1-0.2,0.1-0.3C48.1-33.5,47-40.5,47-48.5c1.5,6,3.2,9.3,8.1,14.4
				c0.1,0.1,0.2,0.1,0.3,0c0.1-0.1,0.1-0.2,0.1-0.3c-5.3-11.6-4.9-24.4-0.9-34.3c0-0.1,0-0.2-0.1-0.3c-0.1-0.1-0.2-0.1-0.3,0
				c-5.2,2.6-8.3,4.2-12.8,10.4c1.4,7.4,0.2,11-3.2,17.2c3.9-9.9,1.8-23.9-8.2-29.6c-0.1-0.1-0.2,0-0.3,0.1c-0.1,0.1-0.1,0.2,0,0.3
				c3.8,4,6.5,10.6,4.2,17.9c1.5-10.4-7.6-19.1-17.8-19.1c-9.6,0-16.2,7.5-15.6,14.9c0.5,7.4,5.4,11,9.7,12.5c0.1,0,0.2,0,0.3-0.1
				c0.1-0.1,0-0.2,0-0.3c-5.6-5.7-6.4-16.5,3.6-19.8c-5.9,5.1-3.7,16.8,5.7,17.7c0.1,0,0.2-0.1,0.3-0.2c0-0.1,0-0.2-0.1-0.3
				c-2-1.3-3.7-3.8-3.7-6.6c0-4.7,3.4-6.5,5.7-6.5c3.4,0,6.3,3.3,6.3,8.2c0,5.8-5.3,10.7-12,11.4C9.6-40,3.4-42.9,0.5-47.2
				c-0.1-0.1-0.2-0.1-0.3-0.1C0-47.3,0-47.1,0-47c3,11.7,16.8,16.9,26.9,9.5c-6.6,7.5-17,7.6-25.7-0.1c-0.1-0.1-0.2-0.1-0.3,0
				c-0.1,0.1-0.1,0.2-0.1,0.3c2.7,5.4,9.3,11.8,18.6,10.9c8.6-0.9,13.5-9,14.5-15.7c0.6,8.5-1.4,14.5-8.8,20.1
				c-0.1,0.1-0.1,0.2-0.1,0.3c0.1,0.1,0.2,0.2,0.3,0.1c6.8-2,12.2-5.4,15-12.5c0,6.2-2.1,12.4-7.5,16.5c-0.1,0.1-0.1,0.2-0.1,0.3
				c0.1,0.1,0.2,0.2,0.3,0.1c3.5-1,6.2-2.5,8.1-5.2c1.3,11.1,6.5,17.7,12.5,17.7c4.1,0,7.2-3,7.2-7.9C61-15.3,59.5-19.3,56.2-21.5z
				 M155.4-113.1c-3.2-3.9-9.5-5.4-16.4-4c0.5-4.3-0.3-8.8-1.6-11.5c-0.1-0.1-0.2-0.2-0.3-0.1c-0.1,0-0.2,0.1-0.2,0.3
				c0.4,8.8-4.6,15.8-13.4,18.9c6.9-4.8,8.9-14.2,5.6-19.1c-0.1-0.1-0.2-0.1-0.3-0.1c-0.1,0-0.2,0.2-0.2,0.3
				c0.4,2.1-0.6,4.7-2.7,6.7c-2.9,2.8-6.8,3.5-8.8,1.4c-2-2-1.2-5.9,1.7-8.8c1.1-1,2.3-1.8,3.4-2.2c0.1,0,0.2-0.2,0.2-0.3
				c0-0.1-0.1-0.2-0.2-0.2c-6.4-0.6-10.8,3.3-13.5,7.9c-2.8,4.7-7.6,8.4-13.2,7.7c-0.1,0-0.2,0.1-0.3,0.2c0,0.1,0,0.2,0.1,0.3
				c2.8,1.7,5.9,2.4,9.9,1.1c-5.8,4.9-14,7.7-21.8,5.2c-0.1,0-0.2,0-0.3,0.1c-0.1,0.1-0.1,0.2,0,0.3c5.9,6.6,17.7,6.7,25.1,1.4
				c-3,4.3-7.1,7.5-14.3,8.5c-0.1,0-0.2,0.1-0.2,0.2c0,0.1,0.1,0.2,0.2,0.3c8.3,3.1,16.6,0,23.4-8.2c-3,6.4-7.9,11.5-14.8,14
				c-0.1,0-0.2,0.2-0.2,0.3c0,0.1,0.1,0.2,0.2,0.2c3.9,0.1,7.5-0.9,12.3-3.6c-3.5,5.7-2.7,15.6,2.4,22.3c0.1,0.1,0.2,0.1,0.3,0.1
				c0.1,0,0.2-0.2,0.1-0.3c-1.2-7.2,1.3-15.3,5.6-19.6c-2.2,7.6,0,14.6,5.9,19.6c0.1,0.1,0.2,0.1,0.3,0c0.1,0,0.1-0.1,0.2-0.2
				c1.2-9.4,11.8-19,20.6-19.8c0.1,0,0.2-0.1,0.2-0.2c0-0.1-0.1-0.2-0.2-0.3c-4.3-1-8.7-0.5-12.4,1c2.7-2.9,5.9-5.1,9.6-6.2
				c0.1,0,0.2-0.2,0.2-0.3c0-0.1-0.1-0.2-0.2-0.2c-4.5-0.3-8.9,1-12.7,3.5c4.4-6.6,11-11.5,19.4-13.5c0.1,0,0.2-0.1,0.2-0.3
				c0-0.1-0.1-0.2-0.2-0.2c-11.9-1.3-21.7,3.3-28.2,11.9c1.6-4.9,6.4-9.8,12.9-12.6c5.8-2.5,11.8-2.9,16.4-1.5c0.1,0,0.2,0,0.3-0.1
				C155.5-112.9,155.5-113,155.4-113.1z M102.5-37.5c4.8-10.5,4.5-18.7,0.6-29.1c0-0.1-0.2-0.2-0.3-0.2c-0.1,0-0.2,0.1-0.2,0.3
				c0.6,12.6-2.8,21.7-10.3,27.8c8.3-9.9,4.4-29.6-8.8-29.6c-9.6,0-17.5,8-19.5,17.5c0,0.1,0,0.2,0.2,0.3c0.1,0,0.2,0,0.3-0.1
				c2.8-4.8,7.4-7.9,12.5-7.9c8.1,0,10.5,6.5,10.5,11c0,6.2-4.9,11.3-8.7,11.3c-3.4,0-5-2.8-5-4.9c0-3.9,3-7.2,6.4-8.2
				c0.1,0,0.2-0.2,0.2-0.3c0-0.1-0.1-0.2-0.3-0.2c-4.1,0-7.6,1.9-9.6,5.6c-0.3-2.9-0.3-4.7,0.6-7.7c0-0.1,0-0.2-0.1-0.3
				c-0.1-0.1-0.2,0-0.3,0.1c-7.4,9.4-3.8,25.6,2,32.4c-5.5-4-10.4-12.6-10.3-24.4c0-0.1-0.1-0.2-0.2-0.3c-0.1,0-0.2,0-0.3,0.2
				c-4.1,10.3-1.9,29.2,9.3,39.9c-2.9,0.4-5.9,0.3-9.1-0.7c-0.1,0-0.2,0-0.3,0.1c-0.1,0.1,0,0.2,0.1,0.3C65.8-1.1,71.5,0,77,0
				c-4.7-5.5-3.1-16.6,4.4-16.6c5.3,0,7.8,8.3,3.6,12.8c-0.1,0.1-0.1,0.2,0,0.3c0.1,0.1,0.2,0.1,0.3,0.1c4.8-1.7,9.9-5.8,9.9-11
				c0-5-4.8-9.4-11.8-9.1c8.8-2.5,18.1,0.3,22.9,6.3c0.1,0.1,0.2,0.1,0.3,0.1c0.1-0.1,0.2-0.2,0.1-0.3c-2.8-10.7-12-15.2-23.4-13.7
				c9.3-3.8,23.2-0.5,29.4,7.3c0.1,0.1,0.2,0.1,0.3,0.1c0.1-0.1,0.2-0.2,0.1-0.3C111.8-30.6,108.3-35.6,102.5-37.5z"/>
			<path class="st2" d="M128.9-56.8c0,0.1-0.1,0.2-0.2,0.2c-12.9,0.1-24.8,3.3-34,11.5c8-5.6,22.9-7.5,31.5-3.6
				c0.1,0.1,0.2,0.2,0.1,0.3c0,0.1-0.1,0.2-0.3,0.2c-10.7-0.3-19.3,3-26,9c6.9,0.4,12.6,4.7,12.6,9.8c0,0.1-0.1,0.2-0.2,0.2
				c-0.1,0-0.2,0-0.3-0.1c-1.1-2.5-4.7-3.8-8.6-2.9c-4.2,1-7,4.2-6.3,7.2c0.5,2,2.4,3.4,5,3.8c0.1,0,0.2,0.1,0.2,0.3
				c0,0.1-0.1,0.2-0.2,0.2c-1.1,0.1-2.2,0.1-3.3,0c-6.5-0.6-11.5-4.6-11.9-9.2c-4.7,0.5-8.9,3.2-10.4,6.8c0,0.1-0.2,0.2-0.3,0.2
				c-0.1,0-0.2-0.1-0.2-0.2c-0.4-4.8,1.3-7.8,5-10.9c-5.4,2.1-11.4,2.2-17.3-0.5c-0.1-0.1-0.2-0.2-0.1-0.3c0-0.1,0.1-0.2,0.2-0.2
				c4.9-0.2,8.4-1.8,11.7-5.1c-18.3,5.1-33.1-6.2-28-23.1c0-0.1,0.1-0.2,0.3-0.2c0.1,0,0.2,0.1,0.2,0.2C49.1-53.4,55.9-47,66-46.1
				c-5.4-2.1-11-7-11.6-15.5c0-0.1,0.1-0.2,0.2-0.3c0.1,0,0.2,0,0.3,0.1c2.8,6.2,8.3,9.3,14.2,9.8c-6.3-2.6-10.4-8.6-11.6-16.4
				c0-0.1,0.1-0.2,0.2-0.3c0.1,0,0.2,0,0.3,0.1c3.9,7.6,12.2,12.8,22.4,8.8c10.6-4.1,15.3-16.4,16.3-25c0-0.1,0.1-0.2,0.2-0.2
				c0.1,0,0.2,0.1,0.3,0.2c3.7,15.7-3.6,31.9-16.6,38.8c7.1-2,13.4-6.3,17-13.4c8.3-1,14-3.9,16.9-9.2c0.1-0.1,0.2-0.2,0.3-0.1
				c0.1,0,0.2,0.1,0.2,0.3c-0.2,2.1-0.9,6.3-4.1,8.3c7,0,12.5,0.9,17.8,3C128.8-57,128.9-56.9,128.9-56.8z M99.4-110.3
				c0.1,0.1,0.2,0.1,0.3,0c0.1-0.1,0.1-0.2,0-0.3c-1.6-2.8-0.1-6.8,3.1-6.8c5.7,0,8.5,10.8,7.6,20.6c-2.2-5.8-4-8.1-7.3-10.8
				c-0.1-0.1-0.2-0.1-0.3,0c-0.1,0.1-0.1,0.2-0.1,0.3c4.9,9.1,5.9,16.1,5.9,24.1c-1.5-6-3.2-9.3-8.1-14.4c-0.1-0.1-0.2-0.1-0.3,0
				c-0.1,0.1-0.1,0.2-0.1,0.3c5.3,11.6,4.9,24.4,0.9,34.3c0,0.1,0,0.2,0.1,0.3c0.1,0.1,0.2,0.1,0.3,0c5.2-2.6,8.3-4.2,12.8-10.4
				c-1.4-7.4-0.2-11,3.2-17.2c-3.9,9.9-1.8,23.9,8.2,29.6c0.1,0.1,0.2,0,0.3-0.1c0.1-0.1,0.1-0.2,0-0.3c-3.8-4-6.5-10.6-4.2-17.9
				c-1.5,10.4,7.6,19.1,17.8,19.1c9.6,0,16.2-7.5,15.6-14.9c-0.5-7.4-5.4-11-9.7-12.5c-0.1,0-0.2,0-0.3,0.1c-0.1,0.1-0.1,0.2,0,0.3
				c5.6,5.7,6.4,16.5-3.6,19.8c5.9-5.1,3.7-16.8-5.7-17.7c-0.1,0-0.2,0.1-0.3,0.2c0,0.1,0,0.2,0.1,0.3c2,1.3,3.7,3.8,3.7,6.6
				c0,4.7-3.4,6.5-5.7,6.5c-3.4,0-6.3-3.3-6.3-8.2c0-5.8,5.3-10.7,12-11.4c6.6-0.7,12.8,2.2,15.8,6.5c0.1,0.1,0.2,0.1,0.3,0.1
				c0.1-0.1,0.2-0.2,0.1-0.3c-3-11.7-16.8-16.9-26.9-9.5c6.6-7.5,17-7.6,25.7,0.1c0.1,0.1,0.2,0.1,0.3,0c0.1-0.1,0.1-0.2,0.1-0.3
				c-2.7-5.4-9.3-11.8-18.6-10.9c-8.6,0.9-13.5,9-14.5,15.7c-0.6-8.5,1.4-14.5,8.8-20.1c0.1-0.1,0.1-0.2,0.1-0.3
				c-0.1-0.1-0.2-0.2-0.3-0.1c-6.8,2-12.2,5.4-15,12.5c0-6.2,2.1-12.4,7.5-16.5c0.1-0.1,0.1-0.2,0.1-0.3c-0.1-0.1-0.2-0.2-0.3-0.1
				c-3.5,1-6.2,2.5-8.1,5.2c-1.3-11.1-6.5-17.7-12.5-17.7c-4.1,0-7.2,3-7.2,7.9C94.6-116.5,96.1-112.5,99.4-110.3z M0.2-18.7
				c3.2,3.9,9.5,5.4,16.4,4c-0.5,4.3,0.3,8.8,1.6,11.5C18.3-3.1,18.4-3,18.5-3c0.1,0,0.2-0.1,0.2-0.3c-0.4-8.8,4.6-15.8,13.4-18.9
				C25.2-17.5,23.2-8,26.5-3.2c0.1,0.1,0.2,0.1,0.3,0.1c0.1,0,0.2-0.2,0.2-0.3c-0.4-2.1,0.6-4.7,2.7-6.7c2.9-2.8,6.8-3.5,8.8-1.4
				c2,2,1.2,5.9-1.7,8.8c-1.1,1-2.3,1.8-3.4,2.2c-0.1,0-0.2,0.2-0.2,0.3c0,0.1,0.1,0.2,0.2,0.2c6.4,0.6,10.8-3.3,13.5-7.9
				c2.8-4.7,7.6-8.4,13.2-7.7c0.1,0,0.2-0.1,0.3-0.2c0-0.1,0-0.2-0.1-0.3c-2.8-1.7-5.9-2.4-9.9-1.1c5.8-4.9,14-7.7,21.8-5.2
				c0.1,0,0.2,0,0.3-0.1c0.1-0.1,0.1-0.2,0-0.3c-5.9-6.6-17.7-6.7-25.1-1.4c3-4.3,7.1-7.5,14.3-8.5c0.1,0,0.2-0.1,0.2-0.2
				c0-0.1-0.1-0.2-0.2-0.3c-8.3-3.1-16.6,0-23.4,8.2c3-6.4,7.9-11.5,14.8-14c0.1,0,0.2-0.2,0.2-0.3c0-0.1-0.1-0.2-0.2-0.2
				c-3.9-0.1-7.5,0.9-12.3,3.6c3.5-5.7,2.7-15.6-2.4-22.3c-0.1-0.1-0.2-0.1-0.3-0.1c-0.1,0-0.2,0.2-0.1,0.3
				c1.2,7.2-1.3,15.3-5.6,19.6c2.2-7.6,0-14.6-5.9-19.6c-0.1-0.1-0.2-0.1-0.3,0c-0.1,0-0.1,0.1-0.2,0.2c-1.2,9.4-11.8,19-20.6,19.8
				c-0.1,0-0.2,0.1-0.2,0.2c0,0.1,0.1,0.2,0.2,0.3c4.3,1,8.7,0.5,12.4-1c-2.7,2.9-5.9,5.1-9.6,6.2C8.1-32.2,8-32.1,8-32
				c0,0.1,0.1,0.2,0.2,0.2c4.5,0.3,8.9-1,12.7-3.5c-4.4,6.6-11,11.5-19.4,13.5c-0.1,0-0.2,0.1-0.2,0.3c0,0.1,0.1,0.2,0.2,0.2
				c11.9,1.3,21.7-3.3,28.2-11.9c-1.6,4.9-6.4,9.8-12.9,12.6C11-18,5-17.6,0.4-19.1c-0.1,0-0.2,0-0.3,0.1
				C0.1-18.9,0.1-18.7,0.2-18.7z M53.1-94.2c-4.8,10.5-4.5,18.7-0.6,29.1c0,0.1,0.2,0.2,0.3,0.2c0.1,0,0.2-0.1,0.2-0.3
				c-0.6-12.6,2.8-21.7,10.3-27.8c-8.3,9.9-4.4,29.6,8.8,29.6c9.6,0,17.5-8,19.5-17.5c0-0.1,0-0.2-0.2-0.3c-0.1,0-0.2,0-0.3,0.1
				c-2.8,4.8-7.4,7.9-12.5,7.9c-8.1,0-10.5-6.5-10.5-11c0-6.2,4.9-11.3,8.7-11.3c3.4,0,5,2.8,5,4.9c0,3.9-3,7.2-6.4,8.2
				c-0.1,0-0.2,0.2-0.2,0.3s0.1,0.2,0.3,0.2c4.1,0,7.6-1.9,9.6-5.6c0.3,2.9,0.3,4.7-0.6,7.7c0,0.1,0,0.2,0.1,0.3
				c0.1,0.1,0.2,0,0.3-0.1c7.4-9.4,3.8-25.6-2-32.4c5.5,4,10.4,12.6,10.3,24.4c0,0.1,0.1,0.2,0.2,0.3c0.1,0,0.2,0,0.3-0.2
				c4.1-10.3,1.9-29.2-9.3-39.9c2.9-0.4,5.9-0.3,9.1,0.7c0.1,0,0.2,0,0.3-0.1c0.1-0.1,0-0.2-0.1-0.3c-4.1-3.5-9.8-4.5-15.3-4.5
				c4.7,5.5,3.1,16.6-4.4,16.6c-5.3,0-7.8-8.3-3.6-12.8c0.1-0.1,0.1-0.2,0-0.3c-0.1-0.1-0.2-0.1-0.3-0.1c-4.8,1.7-9.9,5.8-9.9,11
				c0,5,4.8,9.4,11.8,9.1c-8.8,2.5-18.1-0.3-22.9-6.3c-0.1-0.1-0.2-0.1-0.3-0.1c-0.1,0.1-0.2,0.2-0.1,0.3
				c2.8,10.7,12,15.2,23.4,13.7c-9.3,3.8-23.3,0.5-29.4-7.3c-0.1-0.1-0.2-0.1-0.3-0.1c-0.1,0-0.2,0.2-0.1,0.3
				C43.8-101.1,47.3-96.2,53.1-94.2z"/>
		</g>
		<g>
			<path class="st1" d="M135-184.6c0-0.1,0.1-0.2,0.2-0.2c12.9-0.1,24.8-3.3,34-11.5c-8,5.6-22.9,7.5-31.5,3.6
				c-0.1,0-0.2-0.2-0.1-0.3c0-0.1,0.1-0.2,0.3-0.2c10.7,0.3,19.3-3,26-9c-6.9-0.4-12.6-4.7-12.6-9.8c0-0.1,0.1-0.2,0.2-0.2
				c0.1,0,0.2,0,0.3,0.1c1.1,2.5,4.7,3.8,8.6,2.9c4.2-1,7-4.2,6.3-7.2c-0.5-2-2.4-3.4-5-3.8c-0.1,0-0.2-0.1-0.2-0.3
				c0-0.1,0.1-0.2,0.2-0.2c1.1-0.1,2.2-0.1,3.3,0c6.5,0.6,11.5,4.6,11.9,9.2c4.7-0.5,8.9-3.2,10.4-6.8c0-0.1,0.2-0.2,0.3-0.2
				c0.1,0,0.2,0.1,0.2,0.2c0.4,4.8-1.3,7.8-5,10.9c5.4-2.1,11.4-2.2,17.3,0.5c0.1,0,0.2,0.2,0.1,0.3c0,0.1-0.1,0.2-0.2,0.2
				c-4.9,0.2-8.4,1.8-11.7,5.1c18.3-5.1,33.1,6.2,28,23.1c0,0.1-0.1,0.2-0.3,0.2c-0.1,0-0.2-0.1-0.2-0.2
				c-0.9-9.7-7.7-16.1-17.9-17.1c5.4,2.1,11,7,11.6,15.5c0,0.1-0.1,0.2-0.2,0.3c-0.1,0-0.2,0-0.3-0.1c-2.8-6.2-8.3-9.3-14.2-9.8
				c6.3,2.6,10.4,8.6,11.6,16.4c0,0.1-0.1,0.2-0.2,0.3c-0.1,0-0.2,0-0.3-0.1c-3.9-7.6-12.2-12.8-22.4-8.8
				c-10.6,4.1-15.3,16.4-16.3,25c0,0.1-0.1,0.2-0.2,0.2c-0.1,0-0.2-0.1-0.3-0.2c-3.7-15.7,3.6-31.9,16.6-38.8
				c-7.1,2-13.4,6.3-17,13.4c-8.3,1-14,3.9-16.9,9.2c-0.1,0.1-0.2,0.2-0.3,0.1c-0.1,0-0.2-0.1-0.2-0.3c0.2-2.1,0.9-6.3,4.1-8.3
				c-7,0-12.5-0.9-17.8-3C135.1-184.3,135-184.5,135-184.6z M164.5-131.1c-0.1-0.1-0.2-0.1-0.3,0c-0.1,0.1-0.1,0.2,0,0.3
				c1.6,2.8,0.1,6.8-3.1,6.8c-5.7,0-8.5-10.8-7.6-20.6c2.2,5.8,4,8.1,7.3,10.8c0.1,0.1,0.2,0.1,0.3,0c0.1-0.1,0.1-0.2,0.1-0.3
				c-4.9-9.1-5.9-16.1-5.9-24.1c1.5,6,3.2,9.3,8.1,14.4c0.1,0.1,0.2,0.1,0.3,0c0.1-0.1,0.1-0.2,0.1-0.3c-5.3-11.6-4.9-24.4-0.9-34.3
				c0-0.1,0-0.2-0.1-0.3c-0.1-0.1-0.2-0.1-0.3,0c-5.2,2.6-8.3,4.2-12.8,10.4c1.4,7.4,0.2,11-3.2,17.2c3.9-9.9,1.8-23.9-8.2-29.6
				c-0.1-0.1-0.2,0-0.3,0.1c-0.1,0.1-0.1,0.2,0,0.3c3.8,4,6.5,10.6,4.2,17.9c1.5-10.4-7.6-19.1-17.8-19.1c-9.6,0-16.2,7.5-15.6,14.9
				c0.5,7.4,5.4,11,9.7,12.5c0.1,0,0.2,0,0.3-0.1c0.1-0.1,0-0.2,0-0.3c-5.6-5.7-6.4-16.5,3.6-19.8c-5.9,5.1-3.7,16.8,5.7,17.7
				c0.1,0,0.2-0.1,0.3-0.2c0-0.1,0-0.2-0.1-0.3c-2-1.3-3.7-3.8-3.7-6.6c0-4.7,3.4-6.5,5.7-6.5c3.4,0,6.3,3.3,6.3,8.2
				c0,5.8-5.3,10.7-12,11.4c-6.6,0.7-12.8-2.2-15.8-6.5c-0.1-0.1-0.2-0.1-0.3-0.1c-0.1,0.1-0.2,0.2-0.1,0.3
				c3,11.7,16.8,16.9,26.9,9.5c-6.6,7.5-17,7.6-25.7-0.1c-0.1-0.1-0.2-0.1-0.3,0c-0.1,0.1-0.1,0.2-0.1,0.3
				c2.7,5.4,9.3,11.8,18.6,10.9c8.6-0.9,13.5-9,14.5-15.7c0.6,8.5-1.4,14.5-8.8,20.1c-0.1,0.1-0.1,0.2-0.1,0.3
				c0.1,0.1,0.2,0.2,0.3,0.1c6.8-2,12.2-5.4,15-12.5c0,6.2-2.1,12.4-7.5,16.5c-0.1,0.1-0.1,0.2-0.1,0.3s0.2,0.2,0.3,0.1
				c3.5-1,6.2-2.5,8.1-5.2c1.3,11.1,6.5,17.7,12.5,17.7c4.1,0,7.2-3,7.2-7.9C169.3-124.9,167.8-128.9,164.5-131.1z M263.7-222.7
				c-3.2-3.9-9.5-5.4-16.4-4c0.5-4.3-0.3-8.8-1.6-11.5c-0.1-0.1-0.2-0.2-0.3-0.1c-0.1,0-0.2,0.1-0.2,0.3c0.4,8.8-4.6,15.8-13.4,18.9
				c6.9-4.8,8.9-14.2,5.6-19.1c-0.1-0.1-0.2-0.1-0.3-0.1c-0.1,0-0.2,0.2-0.2,0.3c0.4,2.1-0.6,4.7-2.7,6.7c-2.9,2.8-6.8,3.5-8.8,1.4
				c-2-2-1.2-5.9,1.7-8.8c1.1-1,2.3-1.8,3.4-2.2c0.1,0,0.2-0.2,0.2-0.3c0-0.1-0.1-0.2-0.2-0.2c-6.4-0.6-10.8,3.3-13.5,7.9
				c-2.8,4.7-7.6,8.4-13.2,7.7c-0.1,0-0.2,0.1-0.3,0.2c0,0.1,0,0.2,0.1,0.3c2.8,1.7,5.9,2.4,9.9,1.1c-5.8,4.9-14,7.7-21.8,5.2
				c-0.1,0-0.2,0-0.3,0.1c-0.1,0.1-0.1,0.2,0,0.3c5.9,6.6,17.7,6.7,25.1,1.4c-3,4.3-7.1,7.5-14.3,8.5c-0.1,0-0.2,0.1-0.2,0.2
				c0,0.1,0.1,0.2,0.2,0.3c8.3,3.1,16.6,0,23.4-8.2c-3,6.4-7.9,11.5-14.8,14c-0.1,0-0.2,0.2-0.2,0.3c0,0.1,0.1,0.2,0.2,0.2
				c3.9,0.1,7.5-0.9,12.3-3.6c-3.5,5.7-2.7,15.6,2.4,22.3c0.1,0.1,0.2,0.1,0.3,0.1c0.1,0,0.2-0.2,0.1-0.3
				c-1.2-7.2,1.3-15.3,5.6-19.6c-2.2,7.6,0,14.6,5.9,19.6c0.1,0.1,0.2,0.1,0.3,0c0.1,0,0.1-0.1,0.2-0.2c1.2-9.4,11.8-19,20.6-19.8
				c0.1,0,0.2-0.1,0.2-0.2c0-0.1-0.1-0.2-0.2-0.3c-4.3-1-8.7-0.5-12.4,1c2.7-2.9,5.9-5.1,9.6-6.2c0.1,0,0.2-0.2,0.2-0.3
				c0-0.1-0.1-0.2-0.2-0.2c-4.5-0.3-8.9,1-12.7,3.5c4.4-6.6,11-11.5,19.4-13.5c0.1,0,0.2-0.1,0.2-0.3c0-0.1-0.1-0.2-0.2-0.2
				c-11.9-1.3-21.7,3.3-28.2,11.9c1.6-4.9,6.4-9.8,12.9-12.6c5.8-2.5,11.9-2.9,16.4-1.5c0.1,0,0.2,0,0.3-0.1
				C263.8-222.5,263.8-222.6,263.7-222.7z M210.8-147.2c4.8-10.5,4.5-18.7,0.6-29.1c0-0.1-0.2-0.2-0.3-0.2c-0.1,0-0.2,0.1-0.2,0.3
				c0.6,12.6-2.8,21.7-10.3,27.8c8.3-9.9,4.4-29.6-8.8-29.6c-9.6,0-17.5,8-19.5,17.5c0,0.1,0,0.2,0.2,0.3c0.1,0,0.2,0,0.3-0.1
				c2.8-4.8,7.4-7.9,12.5-7.9c8.1,0,10.5,6.5,10.5,11c0,6.2-4.9,11.3-8.7,11.3c-3.4,0-5-2.8-5-4.9c0-3.9,3-7.2,6.4-8.2
				c0.1,0,0.2-0.2,0.2-0.3c0-0.1-0.1-0.2-0.3-0.2c-4.1,0-7.6,1.9-9.6,5.6c-0.3-2.9-0.3-4.7,0.6-7.7c0-0.1,0-0.2-0.1-0.3
				c-0.1-0.1-0.2,0-0.3,0.1c-7.4,9.4-3.8,25.6,2,32.4c-5.5-4-10.4-12.6-10.3-24.4c0-0.1-0.1-0.2-0.2-0.3c-0.1,0-0.2,0-0.3,0.2
				c-4.1,10.3-1.9,29.2,9.3,39.9c-2.9,0.4-5.9,0.3-9.1-0.7c-0.1,0-0.2,0-0.3,0.1c-0.1,0.1,0,0.2,0.1,0.3c4.1,3.5,9.8,4.5,15.3,4.5
				c-4.7-5.5-3.1-16.6,4.4-16.6c5.3,0,7.8,8.3,3.6,12.8c-0.1,0.1-0.1,0.2,0,0.3c0.1,0.1,0.2,0.1,0.3,0.1c4.8-1.7,9.9-5.8,9.9-11
				c0-5-4.8-9.4-11.8-9.1c8.8-2.5,18.1,0.3,22.9,6.3c0.1,0.1,0.2,0.1,0.3,0.1c0.1-0.1,0.2-0.2,0.1-0.3c-2.8-10.7-12-15.2-23.4-13.7
				c9.3-3.8,23.3-0.5,29.4,7.3c0.1,0.1,0.2,0.1,0.3,0.1c0.1-0.1,0.2-0.2,0.1-0.3C220.1-140.3,216.6-145.2,210.8-147.2z"/>
			<path class="st2" d="M237.2-166.5c0,0.1-0.1,0.2-0.2,0.2c-12.9,0.1-24.8,3.3-34,11.5c8-5.6,22.9-7.5,31.5-3.6
				c0.1,0.1,0.2,0.2,0.1,0.3c0,0.1-0.1,0.2-0.3,0.2c-10.7-0.3-19.3,3-26,9c6.9,0.4,12.6,4.7,12.6,9.8c0,0.1-0.1,0.2-0.2,0.2
				c-0.1,0-0.2,0-0.3-0.1c-1.1-2.5-4.7-3.8-8.6-2.9c-4.2,1-7,4.2-6.3,7.2c0.5,2,2.4,3.4,5,3.8c0.1,0,0.2,0.1,0.2,0.3
				c0,0.1-0.1,0.2-0.2,0.2c-1.1,0.1-2.2,0.1-3.3,0c-6.5-0.6-11.5-4.6-11.9-9.2c-4.7,0.5-8.9,3.2-10.4,6.8c0,0.1-0.2,0.2-0.3,0.2
				c-0.1,0-0.2-0.1-0.2-0.2c-0.4-4.8,1.3-7.8,5-10.9c-5.4,2.1-11.4,2.2-17.3-0.5c-0.1-0.1-0.2-0.2-0.1-0.3c0-0.1,0.1-0.2,0.2-0.2
				c4.9-0.2,8.4-1.8,11.7-5.1c-18.3,5.1-33.1-6.2-28-23.1c0-0.1,0.1-0.2,0.3-0.2s0.2,0.1,0.2,0.2c0.9,9.7,7.7,16.1,17.9,17.1
				c-5.4-2.1-11-7-11.6-15.5c0-0.1,0.1-0.2,0.2-0.3c0.1,0,0.2,0,0.3,0.1c2.8,6.2,8.3,9.3,14.2,9.8c-6.3-2.6-10.4-8.6-11.6-16.4
				c0-0.1,0.1-0.2,0.2-0.3c0.1,0,0.2,0,0.3,0.1c3.9,7.6,12.2,12.8,22.4,8.8c10.6-4.1,15.3-16.4,16.3-25c0-0.1,0.1-0.2,0.2-0.2
				c0.1,0,0.2,0.1,0.3,0.2c3.7,15.7-3.6,31.9-16.6,38.8c7.1-2,13.4-6.3,17-13.4c8.3-1,14-3.9,16.9-9.2c0.1-0.1,0.2-0.2,0.3-0.1
				c0.1,0,0.2,0.1,0.2,0.3c-0.2,2.1-0.9,6.3-4.1,8.3c7,0,12.5,0.9,17.8,3C237.2-166.7,237.2-166.6,237.2-166.5z M207.7-219.9
				c0.1,0.1,0.2,0.1,0.3,0c0.1-0.1,0.1-0.2,0-0.3c-1.6-2.8-0.1-6.8,3.1-6.8c5.7,0,8.5,10.8,7.6,20.6c-2.2-5.8-4-8.1-7.3-10.8
				c-0.1-0.1-0.2-0.1-0.3,0c-0.1,0.1-0.1,0.2-0.1,0.3c4.9,9.1,5.9,16.1,5.9,24.1c-1.5-6-3.2-9.3-8.1-14.4c-0.1-0.1-0.2-0.1-0.3,0
				c-0.1,0.1-0.1,0.2-0.1,0.3c5.3,11.6,4.9,24.4,0.9,34.3c0,0.1,0,0.2,0.1,0.3c0.1,0.1,0.2,0.1,0.3,0c5.2-2.6,8.3-4.2,12.8-10.4
				c-1.4-7.4-0.2-11,3.2-17.2c-3.9,9.9-1.8,23.9,8.2,29.6c0.1,0.1,0.2,0,0.3-0.1c0.1-0.1,0.1-0.2,0-0.3c-3.8-4-6.5-10.6-4.2-17.9
				c-1.5,10.4,7.6,19.1,17.8,19.1c9.6,0,16.2-7.5,15.6-14.9c-0.5-7.4-5.4-11-9.7-12.5c-0.1,0-0.2,0-0.3,0.1c-0.1,0.1-0.1,0.2,0,0.3
				c5.6,5.7,6.4,16.5-3.6,19.8c5.9-5.1,3.7-16.8-5.7-17.7c-0.1,0-0.2,0.1-0.3,0.2c0,0.1,0,0.2,0.1,0.3c2,1.3,3.7,3.8,3.7,6.6
				c0,4.7-3.4,6.5-5.7,6.5c-3.4,0-6.3-3.3-6.3-8.2c0-5.8,5.3-10.7,12-11.4c6.6-0.7,12.8,2.2,15.8,6.5c0.1,0.1,0.2,0.1,0.3,0.1
				c0.1-0.1,0.2-0.2,0.1-0.3c-3-11.7-16.8-16.9-26.9-9.5c6.6-7.5,17-7.6,25.7,0.1c0.1,0.1,0.2,0.1,0.3,0c0.1-0.1,0.1-0.2,0.1-0.3
				c-2.7-5.4-9.3-11.8-18.6-10.9c-8.6,0.9-13.5,9-14.5,15.7c-0.6-8.5,1.4-14.5,8.8-20.1c0.1-0.1,0.1-0.2,0.1-0.3s-0.2-0.2-0.3-0.1
				c-6.8,2-12.2,5.4-15,12.5c0-6.2,2.1-12.4,7.5-16.5c0.1-0.1,0.1-0.2,0.1-0.3c-0.1-0.1-0.2-0.2-0.3-0.1c-3.5,1-6.2,2.5-8.1,5.2
				c-1.3-11.1-6.5-17.7-12.5-17.7c-4.1,0-7.2,3-7.2,7.9C202.9-226.1,204.4-222.1,207.7-219.9z M108.5-128.3c3.2,3.9,9.5,5.4,16.4,4
				c-0.5,4.3,0.3,8.8,1.6,11.5c0.1,0.1,0.2,0.2,0.3,0.1c0.1,0,0.2-0.1,0.2-0.3c-0.4-8.8,4.6-15.8,13.4-18.9
				c-6.9,4.8-8.9,14.2-5.6,19.1c0.1,0.1,0.2,0.1,0.3,0.1c0.1,0,0.2-0.2,0.2-0.3c-0.4-2.1,0.6-4.7,2.7-6.7c2.9-2.8,6.8-3.5,8.8-1.4
				c2,2,1.2,5.9-1.7,8.8c-1.1,1-2.3,1.8-3.4,2.2c-0.1,0-0.2,0.2-0.2,0.3c0,0.1,0.1,0.2,0.2,0.2c6.4,0.6,10.8-3.3,13.5-7.9
				c2.8-4.7,7.6-8.4,13.2-7.7c0.1,0,0.2-0.1,0.3-0.2c0-0.1,0-0.2-0.1-0.3c-2.8-1.7-5.9-2.4-9.9-1.1c5.8-4.9,14-7.7,21.8-5.2
				c0.1,0,0.2,0,0.3-0.1c0.1-0.1,0.1-0.2,0-0.3c-5.9-6.6-17.7-6.7-25.1-1.4c3-4.3,7.1-7.5,14.3-8.5c0.1,0,0.2-0.1,0.2-0.2
				c0-0.1-0.1-0.2-0.2-0.3c-8.3-3.1-16.6,0-23.4,8.2c3-6.4,7.9-11.5,14.8-14c0.1,0,0.2-0.2,0.2-0.3c0-0.1-0.1-0.2-0.2-0.2
				c-3.9-0.1-7.5,0.9-12.3,3.6c3.5-5.7,2.7-15.6-2.4-22.3c-0.1-0.1-0.2-0.1-0.3-0.1c-0.1,0-0.2,0.2-0.1,0.3
				c1.2,7.2-1.3,15.3-5.6,19.6c2.2-7.6,0-14.6-5.9-19.6c-0.1-0.1-0.2-0.1-0.3,0c-0.1,0-0.1,0.1-0.2,0.2c-1.2,9.4-11.8,19-20.6,19.8
				c-0.1,0-0.2,0.1-0.2,0.2c0,0.1,0.1,0.2,0.2,0.3c4.3,1,8.7,0.5,12.4-1c-2.7,2.9-5.9,5.1-9.6,6.2c-0.1,0-0.2,0.2-0.2,0.3
				c0,0.1,0.1,0.2,0.2,0.2c4.5,0.3,8.9-1,12.7-3.5c-4.4,6.6-11,11.5-19.4,13.5c-0.1,0-0.2,0.1-0.2,0.3c0,0.1,0.1,0.2,0.2,0.2
				c11.9,1.3,21.7-3.3,28.2-11.9c-1.6,4.9-6.4,9.8-12.9,12.6c-5.8,2.5-11.8,2.9-16.4,1.5c-0.1,0-0.2,0-0.3,0.1
				C108.4-128.5,108.4-128.4,108.5-128.3z M161.4-203.9c-4.8,10.5-4.5,18.7-0.6,29.1c0,0.1,0.2,0.2,0.3,0.2c0.1,0,0.2-0.1,0.2-0.3
				c-0.6-12.6,2.8-21.7,10.3-27.8c-8.3,9.9-4.4,29.6,8.8,29.6c9.6,0,17.5-8,19.5-17.5c0-0.1,0-0.2-0.2-0.3c-0.1,0-0.2,0-0.3,0.1
				c-2.8,4.8-7.4,7.9-12.5,7.9c-8.1,0-10.5-6.5-10.5-11c0-6.2,4.9-11.3,8.7-11.3c3.4,0,5,2.8,5,4.9c0,3.9-3,7.2-6.4,8.2
				c-0.1,0-0.2,0.2-0.2,0.3c0,0.1,0.1,0.2,0.3,0.2c4.1,0,7.6-1.9,9.6-5.6c0.3,2.9,0.3,4.7-0.6,7.7c0,0.1,0,0.2,0.1,0.3
				c0.1,0.1,0.2,0,0.3-0.1c7.4-9.4,3.8-25.6-2-32.4c5.5,4,10.4,12.6,10.3,24.4c0,0.1,0.1,0.2,0.2,0.3c0.1,0,0.2,0,0.3-0.2
				c4.1-10.3,1.9-29.2-9.3-39.9c2.9-0.4,5.9-0.3,9.1,0.7c0.1,0,0.2,0,0.3-0.1c0.1-0.1,0-0.2-0.1-0.3c-4.1-3.5-9.8-4.5-15.3-4.5
				c4.7,5.5,3.1,16.6-4.4,16.6c-5.3,0-7.8-8.3-3.6-12.8c0.1-0.1,0.1-0.2,0-0.3c-0.1-0.1-0.2-0.1-0.3-0.1c-4.8,1.7-9.9,5.8-9.9,11
				c0,5,4.8,9.4,11.8,9.1c-8.8,2.5-18.1-0.3-22.9-6.3c-0.1-0.1-0.2-0.1-0.3-0.1c-0.1,0.1-0.2,0.2-0.1,0.3
				c2.8,10.7,12,15.2,23.4,13.7c-9.3,3.8-23.3,0.5-29.4-7.3c-0.1-0.1-0.2-0.1-0.3-0.1c-0.1,0-0.2,0.2-0.1,0.3
				C152.2-210.8,155.7-205.8,161.4-203.9z"/>
		</g>
		<g>
			<path class="st1" d="M26.7-184.6c0-0.1,0.1-0.2,0.2-0.2c12.9-0.1,24.8-3.3,34-11.5c-8,5.6-22.9,7.5-31.5,3.6
				c-0.1,0-0.2-0.2-0.1-0.3c0-0.1,0.1-0.2,0.3-0.2c10.7,0.3,19.3-3,26-9c-6.9-0.4-12.6-4.7-12.6-9.8c0-0.1,0.1-0.2,0.2-0.2
				c0.1,0,0.2,0,0.3,0.1c1.1,2.5,4.7,3.8,8.6,2.9c4.2-1,7-4.2,6.3-7.2c-0.5-2-2.4-3.4-5-3.8c-0.1,0-0.2-0.1-0.2-0.3
				c0-0.1,0.1-0.2,0.2-0.2c1.1-0.1,2.2-0.1,3.3,0c6.5,0.6,11.5,4.6,11.9,9.2c4.7-0.5,8.9-3.2,10.4-6.8c0-0.1,0.2-0.2,0.3-0.2
				c0.1,0,0.2,0.1,0.2,0.2c0.4,4.8-1.3,7.8-5,10.9c5.4-2.1,11.4-2.2,17.3,0.5c0.1,0,0.2,0.2,0.1,0.3c0,0.1-0.1,0.2-0.2,0.2
				c-4.9,0.2-8.4,1.8-11.7,5.1c18.3-5.1,33.1,6.2,28,23.1c0,0.1-0.1,0.2-0.3,0.2c-0.1,0-0.2-0.1-0.2-0.2
				c-0.9-9.7-7.7-16.1-17.9-17.1c5.4,2.1,11,7,11.6,15.5c0,0.1-0.1,0.2-0.2,0.3c-0.1,0-0.2,0-0.3-0.1c-2.8-6.2-8.3-9.3-14.2-9.8
				c6.3,2.6,10.4,8.6,11.6,16.4c0,0.1-0.1,0.2-0.2,0.3c-0.1,0-0.2,0-0.3-0.1c-3.9-7.6-12.2-12.8-22.4-8.8
				c-10.6,4.1-15.3,16.4-16.3,25c0,0.1-0.1,0.2-0.2,0.2c-0.1,0-0.2-0.1-0.3-0.2c-3.7-15.7,3.6-31.9,16.6-38.8
				c-7.1,2-13.4,6.3-17,13.4c-8.3,1-14,3.9-16.9,9.2c-0.1,0.1-0.2,0.2-0.3,0.1c-0.1,0-0.2-0.1-0.2-0.3c0.2-2.1,0.9-6.3,4.1-8.3
				c-7,0-12.5-0.9-17.8-3C26.7-184.3,26.7-184.5,26.7-184.6z M56.2-131.1c-0.1-0.1-0.2-0.1-0.3,0c-0.1,0.1-0.1,0.2,0,0.3
				c1.6,2.8,0.1,6.8-3.1,6.8c-5.7,0-8.5-10.8-7.6-20.6c2.2,5.8,4,8.1,7.3,10.8c0.1,0.1,0.2,0.1,0.3,0c0.1-0.1,0.1-0.2,0.1-0.3
				c-4.9-9.1-5.9-16.1-5.9-24.1c1.5,6,3.2,9.3,8.1,14.4c0.1,0.1,0.2,0.1,0.3,0c0.1-0.1,0.1-0.2,0.1-0.3c-5.3-11.6-4.9-24.4-0.9-34.3
				c0-0.1,0-0.2-0.1-0.3c-0.1-0.1-0.2-0.1-0.3,0c-5.2,2.6-8.3,4.2-12.8,10.4c1.4,7.4,0.2,11-3.2,17.2c3.9-9.9,1.8-23.9-8.2-29.6
				c-0.1-0.1-0.2,0-0.3,0.1c-0.1,0.1-0.1,0.2,0,0.3c3.8,4,6.5,10.6,4.2,17.9c1.5-10.4-7.6-19.1-17.8-19.1c-9.6,0-16.2,7.5-15.6,14.9
				c0.5,7.4,5.4,11,9.7,12.5c0.1,0,0.2,0,0.3-0.1c0.1-0.1,0-0.2,0-0.3c-5.6-5.7-6.4-16.5,3.6-19.8c-5.9,5.1-3.7,16.8,5.7,17.7
				c0.1,0,0.2-0.1,0.3-0.2c0-0.1,0-0.2-0.1-0.3c-2-1.3-3.7-3.8-3.7-6.6c0-4.7,3.4-6.5,5.7-6.5c3.4,0,6.3,3.3,6.3,8.2
				c0,5.8-5.3,10.7-12,11.4c-6.6,0.7-12.8-2.2-15.7-6.5c-0.1-0.1-0.2-0.1-0.3-0.1C0-156.9,0-156.8,0-156.7
				c3,11.7,16.8,16.9,26.9,9.5c-6.6,7.5-17,7.6-25.7-0.1c-0.1-0.1-0.2-0.1-0.3,0c-0.1,0.1-0.1,0.2-0.1,0.3
				c2.7,5.4,9.3,11.8,18.6,10.9c8.6-0.9,13.5-9,14.5-15.7c0.6,8.5-1.4,14.5-8.8,20.1c-0.1,0.1-0.1,0.2-0.1,0.3
				c0.1,0.1,0.2,0.2,0.3,0.1c6.8-2,12.2-5.4,15-12.5c0,6.2-2.1,12.4-7.5,16.5c-0.1,0.1-0.1,0.2-0.1,0.3c0.1,0.1,0.2,0.2,0.3,0.1
				c3.5-1,6.2-2.5,8.1-5.2c1.3,11.1,6.5,17.7,12.5,17.7c4.1,0,7.2-3,7.2-7.9C61-124.9,59.5-128.9,56.2-131.1z M155.4-222.7
				c-3.2-3.9-9.5-5.4-16.4-4c0.5-4.3-0.3-8.8-1.6-11.5c-0.1-0.1-0.2-0.2-0.3-0.1c-0.1,0-0.2,0.1-0.2,0.3c0.4,8.8-4.6,15.8-13.4,18.9
				c6.9-4.8,8.9-14.2,5.6-19.1c-0.1-0.1-0.2-0.1-0.3-0.1c-0.1,0-0.2,0.2-0.2,0.3c0.4,2.1-0.6,4.7-2.7,6.7c-2.9,2.8-6.8,3.5-8.8,1.4
				c-2-2-1.2-5.9,1.7-8.8c1.1-1,2.3-1.8,3.4-2.2c0.1,0,0.2-0.2,0.2-0.3c0-0.1-0.1-0.2-0.2-0.2c-6.4-0.6-10.8,3.3-13.5,7.9
				c-2.8,4.7-7.6,8.4-13.2,7.7c-0.1,0-0.2,0.1-0.3,0.2c0,0.1,0,0.2,0.1,0.3c2.8,1.7,5.9,2.4,9.9,1.1c-5.8,4.9-14,7.7-21.8,5.2
				c-0.1,0-0.2,0-0.3,0.1c-0.1,0.1-0.1,0.2,0,0.3c5.9,6.6,17.7,6.7,25.1,1.4c-3,4.3-7.1,7.5-14.3,8.5c-0.1,0-0.2,0.1-0.2,0.2
				c0,0.1,0.1,0.2,0.2,0.3c8.3,3.1,16.6,0,23.4-8.2c-3,6.4-7.9,11.5-14.8,14c-0.1,0-0.2,0.2-0.2,0.3c0,0.1,0.1,0.2,0.2,0.2
				c3.9,0.1,7.5-0.9,12.3-3.6c-3.5,5.7-2.7,15.6,2.4,22.3c0.1,0.1,0.2,0.1,0.3,0.1c0.1,0,0.2-0.2,0.1-0.3
				c-1.2-7.2,1.3-15.3,5.6-19.6c-2.2,7.6,0,14.6,5.9,19.6c0.1,0.1,0.2,0.1,0.3,0c0.1,0,0.1-0.1,0.2-0.2c1.2-9.4,11.8-19,20.6-19.8
				c0.1,0,0.2-0.1,0.2-0.2c0-0.1-0.1-0.2-0.2-0.3c-4.3-1-8.7-0.5-12.4,1c2.7-2.9,5.9-5.1,9.6-6.2c0.1,0,0.2-0.2,0.2-0.3
				c0-0.1-0.1-0.2-0.2-0.2c-4.5-0.3-8.9,1-12.7,3.5c4.4-6.6,11-11.5,19.4-13.5c0.1,0,0.2-0.1,0.2-0.3c0-0.1-0.1-0.2-0.2-0.2
				c-11.9-1.3-21.7,3.3-28.2,11.9c1.6-4.9,6.4-9.8,12.9-12.6c5.8-2.5,11.8-2.9,16.4-1.5c0.1,0,0.2,0,0.3-0.1
				C155.5-222.5,155.5-222.6,155.4-222.7z M102.5-147.2c4.8-10.5,4.5-18.7,0.6-29.1c0-0.1-0.2-0.2-0.3-0.2c-0.1,0-0.2,0.1-0.2,0.3
				c0.6,12.6-2.8,21.7-10.3,27.8c8.3-9.9,4.4-29.6-8.8-29.6c-9.6,0-17.5,8-19.5,17.5c0,0.1,0,0.2,0.2,0.3c0.1,0,0.2,0,0.3-0.1
				c2.8-4.8,7.4-7.9,12.5-7.9c8.1,0,10.5,6.5,10.5,11c0,6.2-4.9,11.3-8.7,11.3c-3.4,0-5-2.8-5-4.9c0-3.9,3-7.2,6.4-8.2
				c0.1,0,0.2-0.2,0.2-0.3c0-0.1-0.1-0.2-0.3-0.2c-4.1,0-7.6,1.9-9.6,5.6c-0.3-2.9-0.3-4.7,0.6-7.7c0-0.1,0-0.2-0.1-0.3
				c-0.1-0.1-0.2,0-0.3,0.1c-7.4,9.4-3.8,25.6,2,32.4c-5.5-4-10.4-12.6-10.3-24.4c0-0.1-0.1-0.2-0.2-0.3c-0.1,0-0.2,0-0.3,0.2
				c-4.1,10.3-1.9,29.2,9.3,39.9c-2.9,0.4-5.9,0.3-9.1-0.7c-0.1,0-0.2,0-0.3,0.1c-0.1,0.1,0,0.2,0.1,0.3c4.1,3.5,9.8,4.5,15.3,4.5
				c-4.7-5.5-3.1-16.6,4.4-16.6c5.3,0,7.8,8.3,3.6,12.8c-0.1,0.1-0.1,0.2,0,0.3c0.1,0.1,0.2,0.1,0.3,0.1c4.8-1.7,9.9-5.8,9.9-11
				c0-5-4.8-9.4-11.8-9.1c8.8-2.5,18.1,0.3,22.9,6.3c0.1,0.1,0.2,0.1,0.3,0.1c0.1-0.1,0.2-0.2,0.1-0.3c-2.8-10.7-12-15.2-23.4-13.7
				c9.3-3.8,23.2-0.5,29.4,7.3c0.1,0.1,0.2,0.1,0.3,0.1c0.1-0.1,0.2-0.2,0.1-0.3C111.8-140.3,108.3-145.2,102.5-147.2z"/>
			<path class="st2" d="M128.9-166.5c0,0.1-0.1,0.2-0.2,0.2c-12.9,0.1-24.8,3.3-34,11.5c8-5.6,22.9-7.5,31.5-3.6
				c0.1,0.1,0.2,0.2,0.1,0.3c0,0.1-0.1,0.2-0.3,0.2c-10.7-0.3-19.3,3-26,9c6.9,0.4,12.6,4.7,12.6,9.8c0,0.1-0.1,0.2-0.2,0.2
				c-0.1,0-0.2,0-0.3-0.1c-1.1-2.5-4.7-3.8-8.6-2.9c-4.2,1-7,4.2-6.3,7.2c0.5,2,2.4,3.4,5,3.8c0.1,0,0.2,0.1,0.2,0.3
				c0,0.1-0.1,0.2-0.2,0.2c-1.1,0.1-2.2,0.1-3.3,0c-6.5-0.6-11.5-4.6-11.9-9.2c-4.7,0.5-8.9,3.2-10.4,6.8c0,0.1-0.2,0.2-0.3,0.2
				c-0.1,0-0.2-0.1-0.2-0.2c-0.4-4.8,1.3-7.8,5-10.9c-5.4,2.1-11.4,2.2-17.3-0.5c-0.1-0.1-0.2-0.2-0.1-0.3c0-0.1,0.1-0.2,0.2-0.2
				c4.9-0.2,8.4-1.8,11.7-5.1c-18.3,5.1-33.1-6.2-28-23.1c0-0.1,0.1-0.2,0.3-0.2c0.1,0,0.2,0.1,0.2,0.2c0.9,9.7,7.7,16.1,17.9,17.1
				c-5.4-2.1-11-7-11.6-15.5c0-0.1,0.1-0.2,0.2-0.3c0.1,0,0.2,0,0.3,0.1c2.8,6.2,8.3,9.3,14.2,9.8c-6.3-2.6-10.4-8.6-11.6-16.4
				c0-0.1,0.1-0.2,0.2-0.3c0.1,0,0.2,0,0.3,0.1c3.9,7.6,12.2,12.8,22.4,8.8c10.6-4.1,15.3-16.4,16.3-25c0-0.1,0.1-0.2,0.2-0.2
				c0.1,0,0.2,0.1,0.3,0.2c3.7,15.7-3.6,31.9-16.6,38.8c7.1-2,13.4-6.3,17-13.4c8.3-1,14-3.9,16.9-9.2c0.1-0.1,0.2-0.2,0.3-0.1
				c0.1,0,0.2,0.1,0.2,0.3c-0.2,2.1-0.9,6.3-4.1,8.3c7,0,12.5,0.9,17.8,3C128.8-166.7,128.9-166.6,128.9-166.5z M99.4-219.9
				c0.1,0.1,0.2,0.1,0.3,0c0.1-0.1,0.1-0.2,0-0.3c-1.6-2.8-0.1-6.8,3.1-6.8c5.7,0,8.5,10.8,7.6,20.6c-2.2-5.8-4-8.1-7.3-10.8
				c-0.1-0.1-0.2-0.1-0.3,0c-0.1,0.1-0.1,0.2-0.1,0.3c4.9,9.1,5.9,16.1,5.9,24.1c-1.5-6-3.2-9.3-8.1-14.4c-0.1-0.1-0.2-0.1-0.3,0
				c-0.1,0.1-0.1,0.2-0.1,0.3c5.3,11.6,4.9,24.4,0.9,34.3c0,0.1,0,0.2,0.1,0.3c0.1,0.1,0.2,0.1,0.3,0c5.2-2.6,8.3-4.2,12.8-10.4
				c-1.4-7.4-0.2-11,3.2-17.2c-3.9,9.9-1.8,23.9,8.2,29.6c0.1,0.1,0.2,0,0.3-0.1c0.1-0.1,0.1-0.2,0-0.3c-3.8-4-6.5-10.6-4.2-17.9
				c-1.5,10.4,7.6,19.1,17.8,19.1c9.6,0,16.2-7.5,15.6-14.9c-0.5-7.4-5.4-11-9.7-12.5c-0.1,0-0.2,0-0.3,0.1c-0.1,0.1-0.1,0.2,0,0.3
				c5.6,5.7,6.4,16.5-3.6,19.8c5.9-5.1,3.7-16.8-5.7-17.7c-0.1,0-0.2,0.1-0.3,0.2c0,0.1,0,0.2,0.1,0.3c2,1.3,3.7,3.8,3.7,6.6
				c0,4.7-3.4,6.5-5.7,6.5c-3.4,0-6.3-3.3-6.3-8.2c0-5.8,5.3-10.7,12-11.4c6.6-0.7,12.8,2.2,15.8,6.5c0.1,0.1,0.2,0.1,0.3,0.1
				c0.1-0.1,0.2-0.2,0.1-0.3c-3-11.7-16.8-16.9-26.9-9.5c6.6-7.5,17-7.6,25.7,0.1c0.1,0.1,0.2,0.1,0.3,0c0.1-0.1,0.1-0.2,0.1-0.3
				c-2.7-5.4-9.3-11.8-18.6-10.9c-8.6,0.9-13.5,9-14.5,15.7c-0.6-8.5,1.4-14.5,8.8-20.1c0.1-0.1,0.1-0.2,0.1-0.3
				c-0.1-0.1-0.2-0.2-0.3-0.1c-6.8,2-12.2,5.4-15,12.5c0-6.2,2.1-12.4,7.5-16.5c0.1-0.1,0.1-0.2,0.1-0.3c-0.1-0.1-0.2-0.2-0.3-0.1
				c-3.5,1-6.2,2.5-8.1,5.2c-1.3-11.1-6.5-17.7-12.5-17.7c-4.1,0-7.2,3-7.2,7.9C94.6-226.1,96.1-222.1,99.4-219.9z M0.2-128.3
				c3.2,3.9,9.5,5.4,16.4,4c-0.5,4.3,0.3,8.8,1.6,11.5c0.1,0.1,0.2,0.2,0.3,0.1c0.1,0,0.2-0.1,0.2-0.3c-0.4-8.8,4.6-15.8,13.4-18.9
				c-6.9,4.8-8.9,14.2-5.6,19.1c0.1,0.1,0.2,0.1,0.3,0.1c0.1,0,0.2-0.2,0.2-0.3c-0.4-2.1,0.6-4.7,2.7-6.7c2.9-2.8,6.8-3.5,8.8-1.4
				c2,2,1.2,5.9-1.7,8.8c-1.1,1-2.3,1.8-3.4,2.2c-0.1,0-0.2,0.2-0.2,0.3c0,0.1,0.1,0.2,0.2,0.2c6.4,0.6,10.8-3.3,13.5-7.9
				c2.8-4.7,7.6-8.4,13.2-7.7c0.1,0,0.2-0.1,0.3-0.2c0-0.1,0-0.2-0.1-0.3c-2.8-1.7-5.9-2.4-9.9-1.1c5.8-4.9,14-7.7,21.8-5.2
				c0.1,0,0.2,0,0.3-0.1c0.1-0.1,0.1-0.2,0-0.3c-5.9-6.6-17.7-6.7-25.1-1.4c3-4.3,7.1-7.5,14.3-8.5c0.1,0,0.2-0.1,0.2-0.2
				c0-0.1-0.1-0.2-0.2-0.3c-8.3-3.1-16.6,0-23.4,8.2c3-6.4,7.9-11.5,14.8-14c0.1,0,0.2-0.2,0.2-0.3c0-0.1-0.1-0.2-0.2-0.2
				c-3.9-0.1-7.5,0.9-12.3,3.6c3.5-5.7,2.7-15.6-2.4-22.3c-0.1-0.1-0.2-0.1-0.3-0.1c-0.1,0-0.2,0.2-0.1,0.3
				c1.2,7.2-1.3,15.3-5.6,19.6c2.2-7.6,0-14.6-5.9-19.6c-0.1-0.1-0.2-0.1-0.3,0c-0.1,0-0.1,0.1-0.2,0.2c-1.2,9.4-11.8,19-20.6,19.8
				c-0.1,0-0.2,0.1-0.2,0.2c0,0.1,0.1,0.2,0.2,0.3c4.3,1,8.7,0.5,12.4-1c-2.7,2.9-5.9,5.1-9.6,6.2c-0.1,0-0.2,0.2-0.2,0.3
				c0,0.1,0.1,0.2,0.2,0.2c4.5,0.3,8.9-1,12.7-3.5c-4.4,6.6-11,11.5-19.4,13.5c-0.1,0-0.2,0.1-0.2,0.3c0,0.1,0.1,0.2,0.2,0.2
				c11.9,1.3,21.7-3.3,28.2-11.9c-1.6,4.9-6.4,9.8-12.9,12.6c-5.8,2.5-11.8,2.9-16.4,1.5c-0.1,0-0.2,0-0.3,0.1
				C0.1-128.5,0.1-128.4,0.2-128.3z M53.1-203.9c-4.8,10.5-4.5,18.7-0.6,29.1c0,0.1,0.2,0.2,0.3,0.2c0.1,0,0.2-0.1,0.2-0.3
				c-0.6-12.6,2.8-21.7,10.3-27.8c-8.3,9.9-4.4,29.6,8.8,29.6c9.6,0,17.5-8,19.5-17.5c0-0.1,0-0.2-0.2-0.3c-0.1,0-0.2,0-0.3,0.1
				c-2.8,4.8-7.4,7.9-12.5,7.9c-8.1,0-10.5-6.5-10.5-11c0-6.2,4.9-11.3,8.7-11.3c3.4,0,5,2.8,5,4.9c0,3.9-3,7.2-6.4,8.2
				c-0.1,0-0.2,0.2-0.2,0.3s0.1,0.2,0.3,0.2c4.1,0,7.6-1.9,9.6-5.6c0.3,2.9,0.3,4.7-0.6,7.7c0,0.1,0,0.2,0.1,0.3
				c0.1,0.1,0.2,0,0.3-0.1c7.4-9.4,3.8-25.6-2-32.4c5.5,4,10.4,12.6,10.3,24.4c0,0.1,0.1,0.2,0.2,0.3c0.1,0,0.2,0,0.3-0.2
				c4.1-10.3,1.9-29.2-9.3-39.9c2.9-0.4,5.9-0.3,9.1,0.7c0.1,0,0.2,0,0.3-0.1c0.1-0.1,0-0.2-0.1-0.3c-4.1-3.5-9.8-4.5-15.3-4.5
				c4.7,5.5,3.1,16.6-4.4,16.6c-5.3,0-7.8-8.3-3.6-12.8c0.1-0.1,0.1-0.2,0-0.3c-0.1-0.1-0.2-0.1-0.3-0.1c-4.8,1.7-9.9,5.8-9.9,11
				c0,5,4.8,9.4,11.8,9.1c-8.8,2.5-18.1-0.3-22.9-6.3c-0.1-0.1-0.2-0.1-0.3-0.1c-0.1,0.1-0.2,0.2-0.1,0.3
				c2.8,10.7,12,15.2,23.4,13.7c-9.3,3.8-23.3,0.5-29.4-7.3c-0.1-0.1-0.2-0.1-0.3-0.1c-0.1,0-0.2,0.2-0.1,0.3
				C43.8-210.8,47.3-205.8,53.1-203.9z"/>
		</g>
	</g>
</pattern>
<g>
	<g class="st3">
		<path d="M171.6,93c1.5,0,2.8-4.5,2.8-10v-4.6c0-5.5-1.2-10-2.8-10s-2.8-1.5-2.8-3.3s1.2-3.3,2.8-3.3s2.8-1.2,2.8-2.7
			s0.4-6.2,1-10.5c0,0,0,0,2-1.8c2-1.8,4.3-2.6,6.9-2.6c5.7,0,5.7,0,5.7,0c2.3,4.8,2.7,8.9,0.9,9.2s-3.8-1.1-4.5-3.1c0,0,0,0-1.6,0
			c-1.1,0-1.9,0.4-2.3,1.1c-0.4,0.8-0.4,0.8-0.4,0.8c-0.1,2.3-0.2,5.4-0.2,6.9s1.5,2.7,3.2,2.7s3.2,1.5,3.2,3.3s-1.5,3.3-3.2,3.3
			s-3.2,4.5-3.2,10V83c0,5.5,1.6,10,3.6,10s3.6,1.5,3.6,3.3s-4.5,3.3-10,3.3h-0.1c-5.5,0-10-1.5-10-3.3S170.1,93,171.6,93z"/>
		<path d="M195,93c1.8,0,3.4-4.5,3.4-10V61.9c0-5.5-1.5-10-3.4-10s-3.4-1.5-3.4-3.3s3.2-3.3,7.1-3.3s7.1,4.5,7.1,10V83
			c0,5.5,1.3,10,2.9,10s2.9,1.5,2.9,3.3s-4.5,3.3-10,3.3s-10-1.5-10-3.3S193.1,93,195,93z"/>
		<path d="M216.4,80.7c0-5.8,1.9-10.6,5.8-14.4c3.9-3.7,8.6-5.6,14.1-5.6c5.4,0,10.1,1.8,14,5.5c3.9,3.7,5.9,8.5,5.9,14.4
			c0,5.9-1.9,10.8-5.8,14.5c-3.9,3.7-8.6,5.5-14,5.5c-5.6,0-10.3-1.9-14.2-5.6C218.3,91.4,216.4,86.6,216.4,80.7z M224.3,80.7
			c0,3.7,1.2,6.8,3.5,9.2c2.3,2.4,5.2,3.6,8.5,3.6c3.4,0,6.3-1.2,8.6-3.6s3.5-5.5,3.5-9.1c0-3.7-1.2-6.8-3.5-9.2s-5.2-3.6-8.5-3.6
			c-3.5,0-6.4,1.2-8.6,3.7S224.3,77.1,224.3,80.7z"/>
		<path d="M264.8,93c2.1,0,3.8-4.5,3.8-10v-4.6c0-5.5-1.7-10-3.8-10s-3.8-1.5-3.8-3.3s3-3.3,6.8-3.3s6.8,1.9,6.8,4.3s0.9,2.4,2,0.2
			c0,0,0,0,1.5-1.5c1.5-1.5,3.1-2.4,4.7-2.9c1.7-0.5,1.7-0.5,1.7-0.5c2.8-0.1,5.6-0.2,6.1-0.2s1,1.7,1,3.8s-0.3,3.8-0.7,3.8
			s-3.7,0.2-7.3,0.4c0,0,0,0-1.9,0.8c-1.9,0.8-3.2,2.1-4.1,4.1s-0.9,2-0.9,2c-0.2,4.8-0.4,10.6-0.4,12.9s1.9,4.2,4.1,4.2
			s4.1,1.5,4.1,3.3s-4.5,3.3-10,3.3H271c-5.5,0-10-1.5-10-3.3S262.7,93,264.8,93z"/>
		<path d="M330.9,93c1.8,0,3.2,1.5,3.2,3.3s-2.9,3.3-6.5,3.3s-6.5-1-6.5-2.3s-3.4,0.1-7.6,2.9c0,0,0,0-4.4,0c-3.4,0-6.4-1.1-9-3.4
			s-3.8-5.1-3.8-8.6c0-3.5,1.3-6.4,4-8.8c2.7-2.3,5.9-3.5,9.7-3.5c3.5,0,3.5,0,3.5,0c3.7,1.8,6.7,2.4,6.7,1.3s-0.1-3.4-0.2-5.3
			c0,0,0,0-0.4-1c-0.4-1-1.2-2-2.6-2.8c-1.3-0.8-3.1-1.3-5.3-1.3c-3.7,0-3.7,0-3.7,0c-2.4,2.4-6,4-7.9,3.5s-0.4-4.2,3.4-8.1
			c0,0,1.6-1.7,9.4-1.7c2.8,0,5.3,0.4,7.4,1.2c2.1,0.8,3.6,1.8,4.6,3s1.7,2.5,2.1,3.9s0.4,1.4,0.4,1.4c0.1,2.9,0.2,9.3,0.2,14.1
			S329.1,93,330.9,93z M320.3,87.8c0-1.2-2.9-3.9-6.4-6c0,0,0,0-3.3,0c-2.1,0-3.8,0.6-5.2,1.8c-1.4,1.2-2.1,2.7-2.1,4.6
			c0,1.8,0.6,3.3,1.8,4.5s2.9,1.8,4.9,1.8c3.6,0,3.6,0,3.6,0C317.4,92,320.3,89,320.3,87.8z"/>
		<path d="M340.6,93c1.9,0,3.4-4.5,3.4-10v-4.6c0-5.5-1.4-10-3.1-10s-3.1-1.5-3.1-3.3s3.1-3.3,6.9-3.3s6.9,1.1,6.9,2.4
			s3.9,0.1,8.6-2.8c0,0,0.3-0.2,4.6-0.2c4.3,0,4.3,0,4.3,0c2.5,3.2,8.4,3.5,13.1,0.6c0,0,1-0.6,5.3-0.6c2.4,0,4.5,0.5,6,1.6
			c1.6,1.1,2.6,2.4,3.2,4.1c0.5,1.7,0.5,1.7,0.5,1.7c0.2,3.1,0.3,9.9,0.3,15s1.5,9.4,3.3,9.4s3.3,1.5,3.3,3.3s-3.2,3.3-7,3.3
			s-7-4.5-7-10v-4c0-5.5,0-11.7-0.1-13.7c0,0,0,0-0.2-0.9s-0.7-1.6-1.5-2.2c-0.8-0.6-1.8-0.9-2.9-0.9c-3.2,0-3.2,0-3.2,0
			c-4.2,2.7-7.6,9.4-7.6,14.9V83c0,5.5,1.5,10,3.2,10s3.2,1.5,3.2,3.3s-3.1,3.3-7,3.3s-7-4.5-7-10v-4.7c0-5.5-0.2-11.9-0.4-14.3
			c0,0,0,0-0.7-1.1c-0.7-1.1-1.9-1.7-3.6-1.7c-2.8,0-2.8,0-2.8,0c-4.4,2.7-8,9.4-8,14.9V83c0,5.5,1.5,10,3.3,10s3.3,1.5,3.3,3.3
			s-4.5,3.3-10,3.3h-0.8c-5.5,0-10-1.5-10-3.3S338.7,93,340.6,93z"/>
		<path d="M442.5,93c1.8,0,3.2,1.5,3.2,3.3s-2.9,3.3-6.5,3.3s-6.5-1-6.5-2.3s-3.4,0.1-7.6,2.9c0,0,0,0-4.4,0c-3.4,0-6.4-1.1-9-3.4
			s-3.8-5.1-3.8-8.6c0-3.5,1.3-6.4,4-8.8c2.7-2.3,5.9-3.5,9.7-3.5c3.5,0,3.5,0,3.5,0c3.7,1.8,6.7,2.4,6.7,1.3s-0.1-3.4-0.2-5.3
			c0,0,0,0-0.4-1c-0.4-1-1.2-2-2.6-2.8c-1.3-0.8-3.1-1.3-5.3-1.3c-3.7,0-3.7,0-3.7,0c-2.4,2.4-6,4-7.9,3.5s-0.4-4.2,3.4-8.1
			c0,0,1.6-1.7,9.4-1.7c2.8,0,5.3,0.4,7.4,1.2c2.1,0.8,3.6,1.8,4.6,3s1.7,2.5,2.1,3.9s0.4,1.4,0.4,1.4c0.1,2.9,0.2,9.3,0.2,14.1
			S440.8,93,442.5,93z M432,87.8c0-1.2-2.9-3.9-6.4-6c0,0,0,0-3.3,0c-2.1,0-3.8,0.6-5.2,1.8c-1.4,1.2-2.1,2.7-2.1,4.6
			c0,1.8,0.6,3.3,1.8,4.5s2.9,1.8,4.9,1.8c3.6,0,3.6,0,3.6,0C429,92,432,89,432,87.8z"/>
		<path d="M463.9,104.5c1.2-3.1,0.6-9.7-1.5-14.8l-4.9-12c-2.1-5.1-5.2-9.3-6.9-9.3s-3.1-1.5-3.1-3.3s4.2-3.3,9.4-3.3
			s9.4,1.5,9.4,3.3s-1,3.3-2.3,3.3s-0.6,4.2,1.4,9.3l0.9,2.3c2,5.1,5.2,5.1,7.2,0l0.9-2.3c2-5.1,2.4-9.3,1.1-9.3s-2.5-1.5-2.5-3.3
			s4.1-3.3,9.2-3.3s9.2,1.5,9.2,3.3s-1.3,3.3-2.8,3.3s-4.4,4.2-6.4,9.3l-11.5,29.5c-2,5.1-6.4,9.3-9.9,9.3s-6.3-1.5-6.3-3.2
			s1.7-3.2,3.7-3.2S462.6,107.6,463.9,104.5z"/>
		<path d="M558.2,93c1.9,0,3.4,1.5,3.4,3.3s-3.2,3.3-7.1,3.3s-7.1-1.2-7.1-2.8s-3.6-0.1-8,3.2c0,0-0.2,0.2-5.5,0.2
			c-4.9,0-9.2-1.7-13-5c-3.7-3.4-5.6-8.1-5.6-14.3c0-6.2,1.9-11.1,5.7-14.7s8.2-5.4,13-5.4c5.1,0,5.3,0.2,5.3,0.2
			c4.4,3.3,8,2.6,8-1.5s-1.6-7.5-3.6-7.5s-3.6-1.5-3.6-3.3s3.3-3.3,7.3-3.3s7.3,4.5,7.3,10V83C554.8,88.5,556.3,93,558.2,93z
			 M523.2,80.7c0,4.2,1.2,7.4,3.5,9.6c2.4,2.2,5.2,3.4,8.5,3.4c3.2,0,6-1.2,8.5-3.5s3.7-5.6,3.7-9.8c0-4.2-1.3-7.4-3.8-9.5
			c-2.5-2.1-5.3-3.2-8.5-3.2c-3.4,0-6.2,1.3-8.5,3.8C524.4,73.9,523.2,77,523.2,80.7z"/>
		<path d="M602.9,72.8c1,5.4-2.7,9.8-8.2,9.8h-11.8c-5.5,0-9.2,2.8-8.2,6.3c0,0,0,0,2.3,2.2c2.3,2.2,5.2,3.2,8.8,3.2
			c5.2,0,5.2,0,5.2,0c3.9-3.4,8.6-5.6,10.4-4.8s1.1,4-1.6,7.2c0,0,0,0-3.4,1.6c-3.4,1.6-7,2.4-10.7,2.4c-5.8,0-10.7-1.8-14.8-5.4
			s-6.2-8.5-6.2-14.6c0-5.8,2-10.6,6-14.3c4-3.8,8.6-5.6,13.8-5.6c5.1,0,9.7,1.8,13.8,5.5C602.4,69.9,602.9,72.8,602.9,72.8z
			 M587,77.2c5.5,0,9.1-2.3,8.1-5.1c0,0,0,0-2.2-2.1c-2.2-2.1-5-3.2-8.2-3.2c-3,0-5.5,1-7.6,2.9c-2.1,1.9-2.1,1.9-2.1,1.9
			c-1,3.1,2.7,5.6,8.2,5.6H587z"/>
		<path d="M614.2,99.6c-1.8,0-3.3-2.9-3.3-6.5s1.5-6.5,3.3-6.5s3.3,0.3,3.3,0.6s0.5,2.1,1.2,3.9c0,0,0,0,1.7,1.1s3.7,1.7,6,1.7
			c2.4,0,4.3-0.4,5.7-1.3c1.4-0.8,2.1-2,2.1-3.5c0-1.4-0.6-2.5-1.8-3.2c-1.2-0.7-3.5-1.3-7.1-1.9c-5.2-0.9-8.9-2.3-11.2-4.3
			c-2.2-2-3.3-4.5-3.3-7.6c0-3.2,1.2-5.8,3.6-7.9s5.6-3.2,9.6-3.2c3.6,0,3.6,0,3.6,0c3.1,1.2,5.7,1.8,5.7,1.4s1.5-0.8,3.3-0.8
			s3.3,2.8,3.3,6.3s-1.5,6.3-3.3,6.3s-3.3-0.5-3.3-1.2s-2.2-3.2-4.9-5.8c0,0,0,0-3.8,0c-2,0-3.6,0.4-4.8,1.3c-1.3,0.8-1.9,2-1.9,3.4
			c0,1.4,0.6,2.4,1.7,2.9c1.2,0.5,3.7,1.1,7.5,1.7c3.7,0.6,6.4,1.2,8.3,2s3.4,2,4.7,3.8c1.2,1.8,1.9,3.9,1.9,6.2
			c0,3.5-1.3,6.3-4,8.4c-2.7,2.1-6.2,3.1-10.5,3.1c-4,0-4,0-4,0c-3.2-1.5-5.8-2.3-5.8-1.7S616.1,99.6,614.2,99.6z"/>
		<path d="M649.8,93c1.6,0,2.9-4.5,2.9-10v-4.6c0-5.5-1.3-10-2.9-10s-2.9-1.5-2.9-3.3s3-3.3,6.6-3.3s6.6,4.5,6.6,10V83
			c0,5.5,1.3,10,2.9,10s2.9,1.5,2.9,3.3s-4.3,3.3-9.6,3.3s-9.6-1.5-9.6-3.3S648.2,93,649.8,93z M651.7,49c0-1.2,0.4-2.2,1.3-3.1
			c0.8-0.9,1.9-1.3,3.2-1.3c1.2,0,2.3,0.4,3.2,1.3c0.9,0.9,1.3,1.9,1.3,3.2s-0.4,2.3-1.3,3.2c-0.9,0.9-1.9,1.3-3.2,1.3
			c-1.3,0-2.3-0.4-3.2-1.3C652.1,51.3,651.7,50.2,651.7,49z"/>
		<path d="M709.6,61.8c3.9,0,7.1,1.5,7.1,3.3s-1.5,3.3-3.4,3.3s-3.4,4.5-3.4,10v8.2c0,5.5-0.1,13-0.2,16.6c0,0,0,0-0.4,1.8
			s-1.3,3.7-2.8,5.6c-1.5,1.9-3.7,3.5-6.7,4.8c-3,1.3-6.3,2-10,2c-5.6,0-6.1-0.3-6.1-0.3c-4.8-2.6-7.7-6-6.4-7.4s5.5-1,9.3,1.1
			c0,0,0,0,3.9,0c2.1,0,4.1-0.4,5.9-1.2c1.8-0.8,3.2-1.8,4.1-3s1.5-2.3,1.7-3.3c0.3-1.1,0.3-1.1,0.3-1.1c0.1-2.4,0.1-5.1,0.1-6
			s-1.4-0.4-3,1.2c0,0,0,0-2.5,1.3s-5.2,2-8.2,2c-5.4,0-9.8-1.9-13.2-5.6c-3.4-3.8-5.1-8.4-5.1-13.8c0-6,1.9-10.8,5.6-14.5
			c3.8-3.7,8.1-5.5,13.1-5.5c5,0,5.2,0.2,5.2,0.2c4.5,3.2,8.1,4.6,8.1,3.1S705.7,61.8,709.6,61.8z M678.3,81.1c0,3.8,1.1,7,3.3,9.4
			s5.1,3.6,8.5,3.6c3.4,0,6.3-1.2,8.8-3.7c2.4-2.4,3.7-5.6,3.7-9.4c0-3.9-1.2-7-3.7-9.4c-2.4-2.4-5.3-3.5-8.5-3.5
			c-3.2,0-6.1,1.2-8.5,3.5C679.6,74,678.3,77.2,678.3,81.1z"/>
		<path d="M726.8,61.8c3.9,0,7,1,7,2.3s3.9,0.1,8.7-2.6c0,0,0.4-0.2,4.3-0.2c2.4,0,4.5,0.6,6.1,1.7c1.6,1.2,2.6,2.6,3.1,4.3
			c0.5,1.7,0.5,1.7,0.5,1.7c0.1,3.1,0.2,9.8,0.2,14.9s1.4,9.2,3.2,9.2s3.2,1.5,3.2,3.3s-3.1,3.3-6.9,3.3s-6.9-4.5-6.9-10v-4.7
			c0-5.5-0.2-12.1-0.4-14.7c0,0,0,0-0.9-0.9c-0.9-0.9-1.9-1.3-3.2-1.3c-3.3,0-3.3,0-3.3,0c-4.3,2.6-7.9,9.3-7.9,14.8V83
			c0,5.5,1.5,10,3.3,10s3.3,1.5,3.3,3.3s-4.5,3.3-10,3.3h-0.6c-5.5,0-10-1.5-10-3.3s1.5-3.3,3.3-3.3s3.3-4.5,3.3-10v-4.6
			c0-5.5-1.5-10-3.3-10s-3.3-1.5-3.3-3.3S723,61.8,726.8,61.8z"/>
		<path d="M770.1,99.6c-1.8,0-3.3-2.9-3.3-6.5s1.5-6.5,3.3-6.5s3.3,0.3,3.3,0.6s0.5,2.1,1.2,3.9c0,0,0,0,1.7,1.1s3.7,1.7,6,1.7
			c2.4,0,4.3-0.4,5.7-1.3c1.4-0.8,2.1-2,2.1-3.5c0-1.4-0.6-2.5-1.8-3.2c-1.2-0.7-3.5-1.3-7.1-1.9c-5.2-0.9-8.9-2.3-11.2-4.3
			c-2.2-2-3.3-4.5-3.3-7.6c0-3.2,1.2-5.8,3.6-7.9s5.6-3.2,9.6-3.2c3.6,0,3.6,0,3.6,0c3.1,1.2,5.7,1.8,5.7,1.4s1.5-0.8,3.3-0.8
			s3.3,2.8,3.3,6.3s-1.5,6.3-3.3,6.3s-3.3-0.5-3.3-1.2s-2.2-3.2-4.9-5.8c0,0,0,0-3.8,0c-2,0-3.6,0.4-4.8,1.3c-1.3,0.8-1.9,2-1.9,3.4
			c0,1.4,0.6,2.4,1.7,2.9c1.2,0.5,3.7,1.1,7.5,1.7c3.7,0.6,6.4,1.2,8.3,2s3.4,2,4.7,3.8c1.2,1.8,1.9,3.9,1.9,6.2
			c0,3.5-1.3,6.3-4,8.4c-2.7,2.1-6.2,3.1-10.5,3.1c-4,0-4,0-4,0c-3.2-1.5-5.8-2.3-5.8-1.7S771.9,99.6,770.1,99.6z"/>
	</g>
	<g>
		<g>
			<path class="st4" d="M169.6,91c1.5,0,2.8-4.5,2.8-10v-4.6c0-5.5-1.2-10-2.8-10s-2.8-1.5-2.8-3.3s1.2-3.3,2.8-3.3s2.8-1.2,2.8-2.7
				s0.4-6.2,1-10.5c0,0,0,0,2-1.8c2-1.8,4.3-2.6,6.9-2.6c5.7,0,5.7,0,5.7,0c2.3,4.8,2.7,8.9,0.9,9.2s-3.8-1.1-4.5-3.1c0,0,0,0-1.6,0
				c-1.1,0-1.9,0.4-2.3,1.1c-0.4,0.8-0.4,0.8-0.4,0.8c-0.1,2.3-0.2,5.4-0.2,6.9s1.5,2.7,3.2,2.7s3.2,1.5,3.2,3.3s-1.5,3.3-3.2,3.3
				s-3.2,4.5-3.2,10V81c0,5.5,1.6,10,3.6,10s3.6,1.5,3.6,3.3s-4.5,3.3-10,3.3h-0.1c-5.5,0-10-1.5-10-3.3S168.1,91,169.6,91z"/>
			<path class="st4" d="M193,91c1.8,0,3.4-4.5,3.4-10V59.9c0-5.5-1.5-10-3.4-10s-3.4-1.5-3.4-3.3s3.2-3.3,7.1-3.3s7.1,4.5,7.1,10V81
				c0,5.5,1.3,10,2.9,10s2.9,1.5,2.9,3.3s-4.5,3.3-10,3.3s-10-1.5-10-3.3S191.1,91,193,91z"/>
			<path class="st4" d="M214.4,78.7c0-5.8,1.9-10.6,5.8-14.4c3.9-3.7,8.6-5.6,14.1-5.6c5.4,0,10.1,1.8,14,5.5
				c3.9,3.7,5.9,8.5,5.9,14.4c0,5.9-1.9,10.8-5.8,14.5c-3.9,3.7-8.6,5.5-14,5.5c-5.6,0-10.3-1.9-14.2-5.6
				C216.3,89.4,214.4,84.6,214.4,78.7z M222.3,78.7c0,3.7,1.2,6.8,3.5,9.2c2.3,2.4,5.2,3.6,8.5,3.6c3.4,0,6.3-1.2,8.6-3.6
				s3.5-5.5,3.5-9.1c0-3.7-1.2-6.8-3.5-9.2s-5.2-3.6-8.5-3.6c-3.5,0-6.4,1.2-8.6,3.7S222.3,75.1,222.3,78.7z"/>
			<path class="st4" d="M262.8,91c2.1,0,3.8-4.5,3.8-10v-4.6c0-5.5-1.7-10-3.8-10s-3.8-1.5-3.8-3.3s3-3.3,6.8-3.3s6.8,1.9,6.8,4.3
				s0.9,2.4,2,0.2c0,0,0,0,1.5-1.5c1.5-1.5,3.1-2.4,4.7-2.9c1.7-0.5,1.7-0.5,1.7-0.5c2.8-0.1,5.6-0.2,6.1-0.2s1,1.7,1,3.8
				s-0.3,3.8-0.7,3.8s-3.7,0.2-7.3,0.4c0,0,0,0-1.9,0.8c-1.9,0.8-3.2,2.1-4.1,4.1s-0.9,2-0.9,2c-0.2,4.8-0.4,10.6-0.4,12.9
				s1.9,4.2,4.1,4.2s4.1,1.5,4.1,3.3s-4.5,3.3-10,3.3H269c-5.5,0-10-1.5-10-3.3S260.7,91,262.8,91z"/>
			<path class="st4" d="M328.9,91c1.8,0,3.2,1.5,3.2,3.3s-2.9,3.3-6.5,3.3s-6.5-1-6.5-2.3s-3.4,0.1-7.6,2.9c0,0,0,0-4.4,0
				c-3.4,0-6.4-1.1-9-3.4s-3.8-5.1-3.8-8.6c0-3.5,1.3-6.4,4-8.8c2.7-2.3,5.9-3.5,9.7-3.5c3.5,0,3.5,0,3.5,0c3.7,1.8,6.7,2.4,6.7,1.3
				s-0.1-3.4-0.2-5.3c0,0,0,0-0.4-1c-0.4-1-1.2-2-2.6-2.8c-1.3-0.8-3.1-1.3-5.3-1.3c-3.7,0-3.7,0-3.7,0c-2.4,2.4-6,4-7.9,3.5
				s-0.4-4.2,3.4-8.1c0,0,1.6-1.7,9.4-1.7c2.8,0,5.3,0.4,7.4,1.2c2.1,0.8,3.6,1.8,4.6,3s1.7,2.5,2.1,3.9s0.4,1.4,0.4,1.4
				c0.1,2.9,0.2,9.3,0.2,14.1S327.1,91,328.9,91z M318.3,85.8c0-1.2-2.9-3.9-6.4-6c0,0,0,0-3.3,0c-2.1,0-3.8,0.6-5.2,1.8
				c-1.4,1.2-2.1,2.7-2.1,4.6c0,1.8,0.6,3.3,1.8,4.5s2.9,1.8,4.9,1.8c3.6,0,3.6,0,3.6,0C315.4,90,318.3,87,318.3,85.8z"/>
			<path class="st4" d="M338.6,91c1.9,0,3.4-4.5,3.4-10v-4.6c0-5.5-1.4-10-3.1-10s-3.1-1.5-3.1-3.3s3.1-3.3,6.9-3.3s6.9,1.1,6.9,2.4
				s3.9,0.1,8.6-2.8c0,0,0.3-0.2,4.6-0.2c4.3,0,4.3,0,4.3,0c2.5,3.2,8.4,3.5,13.1,0.6c0,0,1-0.6,5.3-0.6c2.4,0,4.5,0.5,6,1.6
				c1.6,1.1,2.6,2.4,3.2,4.1c0.5,1.7,0.5,1.7,0.5,1.7c0.2,3.1,0.3,9.9,0.3,15s1.5,9.4,3.3,9.4s3.3,1.5,3.3,3.3s-3.2,3.3-7,3.3
				s-7-4.5-7-10v-4c0-5.5,0-11.7-0.1-13.7c0,0,0,0-0.2-0.9s-0.7-1.6-1.5-2.2c-0.8-0.6-1.8-0.9-2.9-0.9c-3.2,0-3.2,0-3.2,0
				c-4.2,2.7-7.6,9.4-7.6,14.9V81c0,5.5,1.5,10,3.2,10s3.2,1.5,3.2,3.3s-3.1,3.3-7,3.3s-7-4.5-7-10v-4.7c0-5.5-0.2-11.9-0.4-14.3
				c0,0,0,0-0.7-1.1c-0.7-1.1-1.9-1.7-3.6-1.7c-2.8,0-2.8,0-2.8,0c-4.4,2.7-8,9.4-8,14.9V81c0,5.5,1.5,10,3.3,10s3.3,1.5,3.3,3.3
				s-4.5,3.3-10,3.3h-0.8c-5.5,0-10-1.5-10-3.3S336.7,91,338.6,91z"/>
			<path class="st4" d="M440.5,91c1.8,0,3.2,1.5,3.2,3.3s-2.9,3.3-6.5,3.3s-6.5-1-6.5-2.3s-3.4,0.1-7.6,2.9c0,0,0,0-4.4,0
				c-3.4,0-6.4-1.1-9-3.4s-3.8-5.1-3.8-8.6c0-3.5,1.3-6.4,4-8.8c2.7-2.3,5.9-3.5,9.7-3.5c3.5,0,3.5,0,3.5,0c3.7,1.8,6.7,2.4,6.7,1.3
				s-0.1-3.4-0.2-5.3c0,0,0,0-0.4-1c-0.4-1-1.2-2-2.6-2.8c-1.3-0.8-3.1-1.3-5.3-1.3c-3.7,0-3.7,0-3.7,0c-2.4,2.4-6,4-7.9,3.5
				s-0.4-4.2,3.4-8.1c0,0,1.6-1.7,9.4-1.7c2.8,0,5.3,0.4,7.4,1.2c2.1,0.8,3.6,1.8,4.6,3s1.7,2.5,2.1,3.9s0.4,1.4,0.4,1.4
				c0.1,2.9,0.2,9.3,0.2,14.1S438.8,91,440.5,91z M430,85.8c0-1.2-2.9-3.9-6.4-6c0,0,0,0-3.3,0c-2.1,0-3.8,0.6-5.2,1.8
				c-1.4,1.2-2.1,2.7-2.1,4.6c0,1.8,0.6,3.3,1.8,4.5s2.9,1.8,4.9,1.8c3.6,0,3.6,0,3.6,0C427,90,430,87,430,85.8z"/>
			<path class="st4" d="M461.9,102.5c1.2-3.1,0.6-9.7-1.5-14.8l-4.9-12c-2.1-5.1-5.2-9.3-6.9-9.3s-3.1-1.5-3.1-3.3s4.2-3.3,9.4-3.3
				s9.4,1.5,9.4,3.3s-1,3.3-2.3,3.3s-0.6,4.2,1.4,9.3l0.9,2.3c2,5.1,5.2,5.1,7.2,0l0.9-2.3c2-5.1,2.4-9.3,1.1-9.3s-2.5-1.5-2.5-3.3
				s4.1-3.3,9.2-3.3s9.2,1.5,9.2,3.3s-1.3,3.3-2.8,3.3s-4.4,4.2-6.4,9.3l-11.5,29.5c-2,5.1-6.4,9.3-9.9,9.3s-6.3-1.5-6.3-3.2
				s1.7-3.2,3.7-3.2S460.6,105.6,461.9,102.5z"/>
			<path class="st4" d="M556.2,91c1.9,0,3.4,1.5,3.4,3.3s-3.2,3.3-7.1,3.3s-7.1-1.2-7.1-2.8s-3.6-0.1-8,3.2c0,0-0.2,0.2-5.5,0.2
				c-4.9,0-9.2-1.7-13-5c-3.7-3.4-5.6-8.1-5.6-14.3c0-6.2,1.9-11.1,5.7-14.7s8.2-5.4,13-5.4c5.1,0,5.3,0.2,5.3,0.2
				c4.4,3.3,8,2.6,8-1.5s-1.6-7.5-3.6-7.5s-3.6-1.5-3.6-3.3s3.3-3.3,7.3-3.3s7.3,4.5,7.3,10V81C552.8,86.5,554.3,91,556.2,91z
				 M521.2,78.7c0,4.2,1.2,7.4,3.5,9.6c2.4,2.2,5.2,3.4,8.5,3.4c3.2,0,6-1.2,8.5-3.5s3.7-5.6,3.7-9.8c0-4.2-1.3-7.4-3.8-9.5
				c-2.5-2.1-5.3-3.2-8.5-3.2c-3.4,0-6.2,1.3-8.5,3.8C522.4,71.9,521.2,75,521.2,78.7z"/>
			<path class="st4" d="M600.9,70.8c1,5.4-2.7,9.8-8.2,9.8h-11.8c-5.5,0-9.2,2.8-8.2,6.3c0,0,0,0,2.3,2.2c2.3,2.2,5.2,3.2,8.8,3.2
				c5.2,0,5.2,0,5.2,0c3.9-3.4,8.6-5.6,10.4-4.8s1.1,4-1.6,7.2c0,0,0,0-3.4,1.6c-3.4,1.6-7,2.4-10.7,2.4c-5.8,0-10.7-1.8-14.8-5.4
				s-6.2-8.5-6.2-14.6c0-5.8,2-10.6,6-14.3c4-3.8,8.6-5.6,13.8-5.6c5.1,0,9.7,1.8,13.8,5.5C600.4,67.9,600.9,70.8,600.9,70.8z
				 M585,75.2c5.5,0,9.1-2.3,8.1-5.1c0,0,0,0-2.2-2.1c-2.2-2.1-5-3.2-8.2-3.2c-3,0-5.5,1-7.6,2.9c-2.1,1.9-2.1,1.9-2.1,1.9
				c-1,3.1,2.7,5.6,8.2,5.6H585z"/>
			<path class="st4" d="M612.2,97.6c-1.8,0-3.3-2.9-3.3-6.5s1.5-6.5,3.3-6.5s3.3,0.3,3.3,0.6s0.5,2.1,1.2,3.9c0,0,0,0,1.7,1.1
				s3.7,1.7,6,1.7c2.4,0,4.3-0.4,5.7-1.3c1.4-0.8,2.1-2,2.1-3.5c0-1.4-0.6-2.5-1.8-3.2c-1.2-0.7-3.5-1.3-7.1-1.9
				c-5.2-0.9-8.9-2.3-11.2-4.3c-2.2-2-3.3-4.5-3.3-7.6c0-3.2,1.2-5.8,3.6-7.9s5.6-3.2,9.6-3.2c3.6,0,3.6,0,3.6,0
				c3.1,1.2,5.7,1.8,5.7,1.4s1.5-0.8,3.3-0.8s3.3,2.8,3.3,6.3s-1.5,6.3-3.3,6.3s-3.3-0.5-3.3-1.2s-2.2-3.2-4.9-5.8c0,0,0,0-3.8,0
				c-2,0-3.6,0.4-4.8,1.3c-1.3,0.8-1.9,2-1.9,3.4c0,1.4,0.6,2.4,1.7,2.9c1.2,0.5,3.7,1.1,7.5,1.7c3.7,0.6,6.4,1.2,8.3,2
				s3.4,2,4.7,3.8c1.2,1.8,1.9,3.9,1.9,6.2c0,3.5-1.3,6.3-4,8.4c-2.7,2.1-6.2,3.1-10.5,3.1c-4,0-4,0-4,0c-3.2-1.5-5.8-2.3-5.8-1.7
				S614.1,97.6,612.2,97.6z"/>
			<path class="st4" d="M647.8,91c1.6,0,2.9-4.5,2.9-10v-4.6c0-5.5-1.3-10-2.9-10s-2.9-1.5-2.9-3.3s3-3.3,6.6-3.3s6.6,4.5,6.6,10V81
				c0,5.5,1.3,10,2.9,10s2.9,1.5,2.9,3.3s-4.3,3.3-9.6,3.3s-9.6-1.5-9.6-3.3S646.2,91,647.8,91z M649.7,47c0-1.2,0.4-2.2,1.3-3.1
				c0.8-0.9,1.9-1.3,3.2-1.3c1.2,0,2.3,0.4,3.2,1.3c0.9,0.9,1.3,1.9,1.3,3.2s-0.4,2.3-1.3,3.2c-0.9,0.9-1.9,1.3-3.2,1.3
				c-1.3,0-2.3-0.4-3.2-1.3C650.1,49.3,649.7,48.2,649.7,47z"/>
			<path class="st4" d="M707.6,59.8c3.9,0,7.1,1.5,7.1,3.3s-1.5,3.3-3.4,3.3s-3.4,4.5-3.4,10v8.2c0,5.5-0.1,13-0.2,16.6
				c0,0,0,0-0.4,1.8s-1.3,3.7-2.8,5.6c-1.5,1.9-3.7,3.5-6.7,4.8c-3,1.3-6.3,2-10,2c-5.6,0-6.1-0.3-6.1-0.3c-4.8-2.6-7.7-6-6.4-7.4
				s5.5-1,9.3,1.1c0,0,0,0,3.9,0c2.1,0,4.1-0.4,5.9-1.2c1.8-0.8,3.2-1.8,4.1-3s1.5-2.3,1.7-3.3c0.3-1.1,0.3-1.1,0.3-1.1
				c0.1-2.4,0.1-5.1,0.1-6s-1.4-0.4-3,1.2c0,0,0,0-2.5,1.3s-5.2,2-8.2,2c-5.4,0-9.8-1.9-13.2-5.6c-3.4-3.8-5.1-8.4-5.1-13.8
				c0-6,1.9-10.8,5.6-14.5c3.8-3.7,8.1-5.5,13.1-5.5c5,0,5.2,0.2,5.2,0.2c4.5,3.2,8.1,4.6,8.1,3.1S703.7,59.8,707.6,59.8z
				 M676.3,79.1c0,3.8,1.1,7,3.3,9.4s5.1,3.6,8.5,3.6c3.4,0,6.3-1.2,8.8-3.7c2.4-2.4,3.7-5.6,3.7-9.4c0-3.9-1.2-7-3.7-9.4
				c-2.4-2.4-5.3-3.5-8.5-3.5c-3.2,0-6.1,1.2-8.5,3.5C677.6,72,676.3,75.2,676.3,79.1z"/>
			<path class="st4" d="M724.8,59.8c3.9,0,7,1,7,2.3s3.9,0.1,8.7-2.6c0,0,0.4-0.2,4.3-0.2c2.4,0,4.5,0.6,6.1,1.7
				c1.6,1.2,2.6,2.6,3.1,4.3c0.5,1.7,0.5,1.7,0.5,1.7c0.1,3.1,0.2,9.8,0.2,14.9s1.4,9.2,3.2,9.2s3.2,1.5,3.2,3.3s-3.1,3.3-6.9,3.3
				s-6.9-4.5-6.9-10v-4.7c0-5.5-0.2-12.1-0.4-14.7c0,0,0,0-0.9-0.9c-0.9-0.9-1.9-1.3-3.2-1.3c-3.3,0-3.3,0-3.3,0
				c-4.3,2.6-7.9,9.3-7.9,14.8V81c0,5.5,1.5,10,3.3,10s3.3,1.5,3.3,3.3s-4.5,3.3-10,3.3h-0.6c-5.5,0-10-1.5-10-3.3s1.5-3.3,3.3-3.3
				s3.3-4.5,3.3-10v-4.6c0-5.5-1.5-10-3.3-10s-3.3-1.5-3.3-3.3S721,59.8,724.8,59.8z"/>
			<path class="st4" d="M768.1,97.6c-1.8,0-3.3-2.9-3.3-6.5s1.5-6.5,3.3-6.5s3.3,0.3,3.3,0.6s0.5,2.1,1.2,3.9c0,0,0,0,1.7,1.1
				s3.7,1.7,6,1.7c2.4,0,4.3-0.4,5.7-1.3c1.4-0.8,2.1-2,2.1-3.5c0-1.4-0.6-2.5-1.8-3.2c-1.2-0.7-3.5-1.3-7.1-1.9
				c-5.2-0.9-8.9-2.3-11.2-4.3c-2.2-2-3.3-4.5-3.3-7.6c0-3.2,1.2-5.8,3.6-7.9s5.6-3.2,9.6-3.2c3.6,0,3.6,0,3.6,0
				c3.1,1.2,5.7,1.8,5.7,1.4s1.5-0.8,3.3-0.8s3.3,2.8,3.3,6.3s-1.5,6.3-3.3,6.3s-3.3-0.5-3.3-1.2s-2.2-3.2-4.9-5.8c0,0,0,0-3.8,0
				c-2,0-3.6,0.4-4.8,1.3c-1.3,0.8-1.9,2-1.9,3.4c0,1.4,0.6,2.4,1.7,2.9c1.2,0.5,3.7,1.1,7.5,1.7c3.7,0.6,6.4,1.2,8.3,2
				s3.4,2,4.7,3.8c1.2,1.8,1.9,3.9,1.9,6.2c0,3.5-1.3,6.3-4,8.4c-2.7,2.1-6.2,3.1-10.5,3.1c-4,0-4,0-4,0c-3.2-1.5-5.8-2.3-5.8-1.7
				S769.9,97.6,768.1,97.6z"/>
		</g>
	</g>
</g>
</svg>
